<svg width="24" height="24" viewBox="0 0 24 24" fill="none" xmlns="http://www.w3.org/2000/svg">
<path d="M8 17C8.26522 17 8.51957 16.8946 8.70711 16.7071C8.89464 16.5196 9 16.2652 9 16C9 15.7348 8.89464 15.4804 8.70711 15.2929C8.51957 15.1054 8.26522 15 8 15C7.73478 15 7.48043 15.1054 7.29289 15.2929C7.10536 15.4804 7 15.7348 7 16C7 16.2652 7.10536 16.5196 7.29289 16.7071C7.48043 16.8946 7.73478 17 8 17ZM12 17C12.2652 17 12.5196 16.8946 12.7071 16.7071C12.8946 16.5196 13 16.2652 13 16C13 15.7348 12.8946 15.4804 12.7071 15.2929C12.5196 15.1054 12.2652 15 12 15C11.7348 15 11.4804 15.1054 11.2929 15.2929C11.1054 15.4804 11 15.7348 11 16C11 16.2652 11.1054 16.5196 11.2929 16.7071C11.4804 16.8946 11.7348 17 12 17ZM17 16C17 16.2652 16.8946 16.5196 16.7071 16.7071C16.5196 16.8946 16.2652 17 16 17C15.7348 17 15.4804 16.8946 15.2929 16.7071C15.1054 16.5196 15 16.2652 15 16C15 15.7348 15.1054 15.4804 15.2929 15.2929C15.4804 15.1054 15.7348 15 16 15C16.2652 15 16.5196 15.1054 16.7071 15.2929C16.8946 15.4804 17 15.7348 17 16Z" fill="#01759F"/>
<path fill-rule="evenodd" clip-rule="evenodd" d="M6.75 7.99984C6.74826 6.72082 7.21348 5.48515 8.05833 4.52487C8.90317 3.56458 10.0695 2.94574 11.3383 2.78455C12.6072 2.62335 13.8912 2.93089 14.9493 3.64941C16.0074 4.36793 16.7669 5.44801 17.085 6.68684C17.1391 6.87443 17.2641 7.03355 17.4336 7.13039C17.6031 7.22724 17.8037 7.25417 17.9928 7.20548C18.1818 7.15678 18.3444 7.0363 18.446 6.86962C18.5477 6.70293 18.5803 6.5032 18.537 6.31284C18.1273 4.72094 17.1508 3.33323 15.7908 2.4101C14.4307 1.48696 12.7805 1.09185 11.1498 1.29889C9.51912 1.50593 8.02003 2.3009 6.93379 3.53463C5.84756 4.76836 5.24885 6.35607 5.25 7.99984V9.30284C5.023 9.31884 4.81 9.33884 4.608 9.36684C3.708 9.48684 2.95 9.74684 2.348 10.3478C1.746 10.9498 1.488 11.7078 1.367 12.6078C1.25 13.4748 1.25 14.5778 1.25 15.9448V16.0548C1.25 17.4218 1.25 18.5248 1.367 19.3918C1.487 20.2918 1.747 21.0498 2.348 21.6518C2.95 22.2538 3.708 22.5118 4.608 22.6338C5.475 22.7498 6.578 22.7498 7.945 22.7498H16.055C17.422 22.7498 18.525 22.7498 19.392 22.6338C20.292 22.5118 21.05 22.2538 21.652 21.6518C22.254 21.0498 22.512 20.2918 22.634 19.3918C22.75 18.5248 22.75 17.4218 22.75 16.0548V15.9448C22.75 14.5778 22.75 13.4748 22.634 12.6078C22.512 11.7078 22.254 10.9498 21.652 10.3478C21.05 9.74584 20.292 9.48784 19.392 9.36684C18.525 9.24984 17.422 9.24984 16.055 9.24984H7.945C7.522 9.24984 7.124 9.24984 6.75 9.25284V7.99984ZM4.808 10.8528C4.074 10.9518 3.686 11.1328 3.409 11.4088C3.132 11.6858 2.952 12.0738 2.853 12.8088C2.752 13.5638 2.75 14.5648 2.75 15.9998C2.75 17.4348 2.752 18.4358 2.853 19.1918C2.952 19.9258 3.133 20.3138 3.409 20.5908C3.686 20.8678 4.074 21.0478 4.809 21.1468C5.563 21.2478 6.565 21.2498 8 21.2498H16C17.435 21.2498 18.436 21.2478 19.192 21.1468C19.926 21.0478 20.314 20.8668 20.591 20.5908C20.868 20.3138 21.048 19.9258 21.147 19.1908C21.248 18.4358 21.25 17.4348 21.25 15.9998C21.25 14.5648 21.248 13.5628 21.147 12.8078C21.048 12.0738 20.867 11.6858 20.591 11.4088C20.314 11.1318 19.926 10.9518 19.191 10.8528C18.436 10.7518 17.435 10.7498 16 10.7498H8C6.565 10.7498 5.563 10.7518 4.808 10.8528Z" fill="#01759F"/>
</svg>
