<svg width="24" height="24" viewBox="0 0 24 24" fill="none" xmlns="http://www.w3.org/2000/svg">
<g clip-path="url(#clip0_450_2022)">
<path d="M20.4532 10.064C19.7761 8.95531 18.922 7.96496 17.9249 7.13226L20.0249 5.03226C20.1615 4.89081 20.2371 4.70136 20.2354 4.50471C20.2337 4.30807 20.1548 4.11996 20.0158 3.9809C19.8767 3.84184 19.6886 3.76297 19.492 3.76126C19.2953 3.75955 19.1059 3.83515 18.9644 3.97176L16.6807 6.25851C15.265 5.41763 13.6465 4.97936 11.9999 4.99101C7.35667 4.99101 4.71067 8.16951 3.54667 10.064C3.18706 10.6456 2.99658 11.3159 2.99658 11.9998C2.99658 12.6836 3.18706 13.3539 3.54667 13.9355C4.22373 15.0442 5.07778 16.0346 6.07492 16.8673L3.97492 18.9673C3.90328 19.0364 3.84615 19.1192 3.80684 19.2107C3.76753 19.3022 3.74684 19.4006 3.74598 19.5002C3.74511 19.5998 3.76409 19.6986 3.8018 19.7907C3.83951 19.8829 3.8952 19.9666 3.96562 20.0371C4.03604 20.1075 4.11978 20.1632 4.21195 20.2009C4.30412 20.2386 4.40288 20.2576 4.50247 20.2567C4.60205 20.2558 4.70047 20.2351 4.79197 20.1958C4.88347 20.1565 4.96623 20.0994 5.03542 20.0278L7.32442 17.7388C8.73837 18.5795 10.3549 19.0185 11.9999 19.0085C16.6432 19.0085 19.2892 15.83 20.4532 13.9355C20.8128 13.3539 21.0033 12.6836 21.0033 11.9998C21.0033 11.3159 20.8128 10.6456 20.4532 10.064ZM4.82467 13.1503C4.61102 12.8045 4.49785 12.4062 4.49785 11.9998C4.49785 11.5934 4.61102 11.195 4.82467 10.8493C5.82517 9.22476 8.08642 6.49101 11.9999 6.49101C13.2451 6.48404 14.4728 6.78414 15.5744 7.36476L14.0647 8.87451C13.3446 8.39647 12.4813 8.18226 11.6213 8.26825C10.7613 8.35424 9.95757 8.73512 9.34642 9.34627C8.73527 9.95741 8.35439 10.7612 8.2684 11.6212C8.18241 12.4812 8.39662 13.3445 8.87467 14.0645L7.14217 15.797C6.22349 15.0543 5.43954 14.159 4.82467 13.1503ZM14.2499 11.9998C14.2499 12.5965 14.0129 13.1688 13.5909 13.5908C13.1689 14.0127 12.5967 14.2498 11.9999 14.2498C11.6658 14.2485 11.3363 14.1715 11.0362 14.0248L14.0249 11.036C14.1717 11.3362 14.2486 11.6656 14.2499 11.9998ZM9.74992 11.9998C9.74992 11.403 9.98697 10.8307 10.4089 10.4088C10.8309 9.98682 11.4032 9.74976 11.9999 9.74976C12.334 9.75106 12.6635 9.82798 12.9637 9.97476L9.97492 12.9635C9.82813 12.6634 9.75121 12.3339 9.74992 11.9998ZM19.1752 13.1503C18.1747 14.7748 15.9134 17.5085 11.9999 17.5085C10.7547 17.5155 9.52699 17.2154 8.42542 16.6348L9.93517 15.125C10.6552 15.6031 11.5185 15.8173 12.3785 15.7313C13.2385 15.6453 14.0423 15.2644 14.6534 14.6533C15.2646 14.0421 15.6454 13.2383 15.7314 12.3783C15.8174 11.5183 15.6032 10.6551 15.1252 9.93501L16.8577 8.20251C17.7763 8.94522 18.5603 9.84055 19.1752 10.8493C19.3888 11.195 19.502 11.5934 19.502 11.9998C19.502 12.4062 19.3888 12.8045 19.1752 13.1503Z" fill="#979797"/>
</g>
<defs>
<clipPath id="clip0_450_2022">
<rect width="18" height="18" fill="white" transform="translate(3 3)"/>
</clipPath>
</defs>
</svg>
