<svg width="24" height="24" viewBox="0 0 24 24" fill="none" xmlns="http://www.w3.org/2000/svg">
<path d="M8.74105 1.63054C6.41596 2.43713 4.41081 3.96808 3.02011 5.9985C1.62942 8.02892 0.926492 10.4518 1.01458 12.9112C1.10266 15.3707 1.97712 17.7371 3.5095 19.6628C5.04188 21.5885 7.15142 22.9721 9.52825 23.6103C11.4552 24.1075 13.4741 24.1294 15.4113 23.6739C17.1663 23.2797 18.7888 22.4365 20.12 21.2269C21.5055 19.9295 22.5111 18.2789 23.0288 16.4528C23.5913 14.4669 23.6915 12.3785 23.3215 10.3479H12.5007V14.8366H18.7674C18.6421 15.5525 18.3738 16.2358 17.9783 16.8455C17.5828 17.4553 17.0684 17.979 16.4658 18.3853C15.7007 18.8917 14.838 19.2323 13.9333 19.3852C13.026 19.554 12.0954 19.554 11.1881 19.3852C10.2685 19.1953 9.39852 18.8158 8.63379 18.2708C7.40508 17.401 6.48249 16.1654 5.99767 14.7402C5.50479 13.2883 5.50479 11.7144 5.99767 10.2625C6.34278 9.24477 6.91328 8.31816 7.66661 7.5518C8.52869 6.6587 9.62012 6.0203 10.8211 5.70666C12.0222 5.39302 13.2864 5.41624 14.4751 5.77379C15.4037 6.05871 16.2529 6.55677 16.9548 7.2282C17.6614 6.52523 18.3668 5.82045 19.071 5.11385C19.4346 4.73389 19.8309 4.3721 20.1891 3.98305C19.1174 2.9859 17.8596 2.20995 16.4876 1.69962C13.9891 0.792416 11.2553 0.768036 8.74105 1.63054Z" fill="white"/>
<path d="M8.74282 1.63045C11.2569 0.767356 13.9907 0.791095 16.4894 1.69771C17.8616 2.2115 19.1189 2.99119 20.189 3.99204C19.8254 4.3811 19.4418 4.7447 19.0709 5.12285C18.3656 5.82702 17.6608 6.52878 16.9566 7.22811C16.2546 6.55667 15.4055 6.05862 14.4768 5.7737C13.2885 5.41489 12.0244 5.39033 10.823 5.70269C9.62168 6.01505 8.52959 6.65227 7.66656 7.54444C6.91323 8.3108 6.34273 9.2374 5.99762 10.2551L2.22888 7.33719C3.57786 4.66209 5.91354 2.61585 8.74282 1.63045Z" fill="#E33629"/>
<path d="M1.22543 10.2276C1.42785 9.2236 1.76415 8.25136 2.22534 7.33691L5.99407 10.2621C5.50119 11.714 5.50119 13.288 5.99407 14.7399C4.73843 15.7095 3.48219 16.6839 2.22534 17.6632C1.07117 15.3658 0.719171 12.7482 1.22543 10.2276Z" fill="#F8BD00"/>
<path d="M12.4976 10.3462H23.3184C23.6884 12.3768 23.5883 14.4652 23.0257 16.4511C22.508 18.2772 21.5024 19.9277 20.1169 21.2252C18.9007 20.2762 17.679 19.3344 16.4627 18.3854C17.0657 17.9787 17.5804 17.4544 17.9759 16.844C18.3714 16.2336 18.6395 15.5496 18.7643 14.833H12.4976C12.4958 13.3386 12.4976 11.8424 12.4976 10.3462Z" fill="#587DBD"/>
<path d="M2.22522 17.6636C3.48207 16.694 4.73832 15.7195 5.99396 14.7402C6.47975 16.1659 7.40366 17.4016 8.63371 18.2708C9.40082 18.8132 10.2726 19.1897 11.1935 19.3762C12.1008 19.5449 13.0314 19.5449 13.9387 19.3762C14.8434 19.2232 15.706 18.8826 16.4712 18.3763C17.6874 19.3253 18.9091 20.267 20.1254 21.216C18.7944 22.4263 17.1719 23.2701 15.4167 23.6649C13.4795 24.1203 11.4606 24.0984 9.53363 23.6012C8.00959 23.1943 6.58604 22.477 5.3522 21.4942C4.04637 20.4572 2.97976 19.1506 2.22522 17.6636Z" fill="#319F43"/>
</svg>
