<svg width="217" height="252" viewBox="0 0 217 252" fill="none" xmlns="http://www.w3.org/2000/svg">
<path d="M110.784 220.591C153.812 220.591 188.693 218.418 188.693 215.737C188.693 213.057 153.812 210.884 110.784 210.884C67.7567 210.884 32.8759 213.057 32.8759 215.737C32.8759 218.418 67.7567 220.591 110.784 220.591Z" fill="#257492"/>
<path opacity="0.8" d="M110.784 220.591C153.812 220.591 188.693 218.418 188.693 215.737C188.693 213.057 153.812 210.884 110.784 210.884C67.7567 210.884 32.8759 213.057 32.8759 215.737C32.8759 218.418 67.7567 220.591 110.784 220.591Z" fill="white"/>
<path d="M169.329 31.1775H90.9922C85.5838 31.1775 81.1995 35.5618 81.1995 40.9702V206.353C81.1995 211.761 85.5838 216.145 90.9922 216.145H169.329C174.737 216.145 179.122 211.761 179.122 206.353V40.9702C179.122 35.5618 174.737 31.1775 169.329 31.1775Z" fill="#263238"/>
<path d="M174.767 51.4888H85.549V195.834H174.767V51.4888Z" fill="white" stroke="#263238" stroke-width="1.33739" stroke-miterlimit="10"/>
<path d="M143.835 109.939C151.387 102.386 151.387 90.1419 143.835 82.5898C136.283 75.0376 124.038 75.0376 116.486 82.5898C108.934 90.1419 108.934 102.386 116.486 109.939C124.038 117.491 136.283 117.491 143.835 109.939Z" fill="#99C8D9"/>
<path d="M155.55 186.757H104.777C104.662 186.758 104.549 186.736 104.443 186.693C104.338 186.65 104.241 186.586 104.16 186.505C104.079 186.425 104.015 186.329 103.971 186.223C103.927 186.118 103.905 186.005 103.905 185.89C103.904 185.776 103.926 185.662 103.97 185.556C104.013 185.45 104.077 185.354 104.159 185.272C104.24 185.191 104.336 185.127 104.442 185.084C104.548 185.04 104.662 185.018 104.777 185.019H155.55C155.664 185.019 155.777 185.041 155.882 185.085C155.988 185.129 156.084 185.193 156.164 185.274C156.245 185.355 156.309 185.451 156.352 185.557C156.395 185.663 156.417 185.776 156.416 185.89C156.416 186.12 156.325 186.341 156.163 186.503C156 186.666 155.779 186.757 155.55 186.757Z" fill="#257492"/>
<path d="M157.203 126.474H103.118C102.002 126.474 101.097 127.379 101.097 128.495V134.871C101.097 135.987 102.002 136.892 103.118 136.892H157.203C158.319 136.892 159.224 135.987 159.224 134.871V128.495C159.224 127.379 158.319 126.474 157.203 126.474Z" fill="#99C8D9"/>
<path d="M157.203 145.958H103.118C102.002 145.958 101.097 146.863 101.097 147.98V154.355C101.097 155.471 102.002 156.376 103.118 156.376H157.203C158.319 156.376 159.224 155.471 159.224 154.355V147.98C159.224 146.863 158.319 145.958 157.203 145.958Z" fill="#99C8D9"/>
<path d="M139.789 105.911L134.099 102.635V99.9282C134.923 98.9314 135.52 97.767 135.848 96.5161C136.044 96.5857 136.25 96.6214 136.458 96.6219C137.164 96.6219 137.612 94.4346 137.688 92.8722C138.509 91.1334 137.39 90.1153 137.39 90.1153C137.39 90.1153 137.854 89.6516 138.162 87.7918C138.469 85.9321 137.078 86.7082 135.994 85.0047C134.911 83.3012 134.135 81.4465 130.576 81.4465C129.596 81.4142 128.628 81.6777 127.8 82.2026C126.971 82.7276 126.319 83.4896 125.929 84.3898C125.044 84.393 124.161 84.4962 123.299 84.6973C122.21 85.0047 121.902 88.568 122.83 89.9641C123.245 90.7271 123.466 91.5802 123.475 92.4488C123.228 92.1464 122.971 92.0658 122.83 92.7512C122.522 94.2985 123.762 96.4657 123.762 96.4657L124.402 96.2842C124.725 97.6211 125.347 98.8671 126.222 99.9282V102.635L120.532 105.911C119.867 106.294 119.315 106.846 118.931 107.51C118.547 108.175 118.345 108.928 118.344 109.696V111.571C121.728 114.185 125.884 115.603 130.161 115.603C134.437 115.603 138.593 114.185 141.977 111.571V109.696C141.977 108.928 141.775 108.174 141.391 107.51C141.007 106.845 140.455 106.294 139.789 105.911Z" fill="#263238"/>
<path d="M108.461 153.786C108.33 153.784 108.206 153.731 108.113 153.639C108.063 153.595 108.024 153.541 107.997 153.48C107.97 153.419 107.956 153.353 107.957 153.287C107.958 153.196 107.985 153.107 108.032 153.03L108.94 151.578L107.171 151.634C107.104 151.638 107.037 151.628 106.975 151.604C106.912 151.581 106.855 151.544 106.808 151.497C106.726 151.405 106.68 151.286 106.68 151.162C106.68 151.039 106.726 150.919 106.808 150.827C106.854 150.778 106.911 150.741 106.973 150.716C107.036 150.692 107.103 150.681 107.171 150.686L108.914 150.752L108.017 149.305C107.969 149.226 107.942 149.136 107.942 149.043C107.941 148.976 107.955 148.911 107.982 148.85C108.009 148.789 108.048 148.735 108.098 148.69C108.191 148.598 108.315 148.546 108.446 148.544C108.532 148.545 108.616 148.57 108.688 148.616C108.76 148.662 108.818 148.728 108.854 148.806L109.716 150.363L110.568 148.816C110.608 148.734 110.67 148.664 110.747 148.614C110.825 148.564 110.914 148.537 111.006 148.534C111.07 148.534 111.133 148.548 111.191 148.574C111.249 148.6 111.301 148.638 111.344 148.685C111.436 148.781 111.487 148.91 111.485 149.043C111.485 149.13 111.462 149.215 111.419 149.29L110.507 150.752L112.276 150.686C112.343 150.681 112.411 150.692 112.473 150.716C112.536 150.741 112.593 150.778 112.639 150.827C112.725 150.916 112.772 151.036 112.77 151.16C112.77 151.285 112.723 151.405 112.639 151.497C112.592 151.544 112.535 151.581 112.472 151.604C112.41 151.628 112.343 151.638 112.276 151.634L110.497 151.578L111.384 153.015C111.434 153.095 111.46 153.187 111.46 153.282C111.46 153.415 111.407 153.543 111.312 153.638C111.217 153.733 111.089 153.786 110.956 153.786C110.869 153.784 110.785 153.758 110.713 153.71C110.642 153.661 110.586 153.593 110.552 153.513L109.711 152.001L108.874 153.513C108.837 153.593 108.779 153.66 108.706 153.708C108.633 153.756 108.548 153.783 108.461 153.786Z" fill="#263238"/>
<path d="M116.636 153.786C116.505 153.784 116.381 153.731 116.288 153.639C116.238 153.595 116.199 153.541 116.172 153.48C116.145 153.419 116.131 153.353 116.132 153.287C116.133 153.196 116.159 153.107 116.207 153.03L117.115 151.578L115.351 151.634C115.283 151.637 115.216 151.626 115.153 151.603C115.09 151.579 115.032 151.544 114.983 151.497C114.916 151.428 114.871 151.341 114.855 151.246C114.838 151.152 114.851 151.054 114.89 150.966C114.93 150.879 114.995 150.805 115.077 150.755C115.159 150.705 115.255 150.681 115.351 150.686L117.089 150.752L116.192 149.305C116.143 149.226 116.117 149.136 116.117 149.043C116.116 148.976 116.13 148.911 116.157 148.85C116.184 148.789 116.223 148.735 116.273 148.69C116.365 148.598 116.49 148.546 116.621 148.544C116.706 148.545 116.79 148.57 116.863 148.616C116.935 148.662 116.993 148.728 117.029 148.806L117.891 150.363L118.742 148.816C118.783 148.734 118.845 148.664 118.922 148.614C119 148.564 119.089 148.537 119.181 148.534C119.245 148.534 119.308 148.547 119.366 148.573C119.424 148.599 119.476 148.637 119.519 148.685C119.565 148.732 119.602 148.788 119.627 148.849C119.652 148.911 119.665 148.977 119.665 149.043C119.663 149.13 119.639 149.215 119.594 149.29L118.682 150.752L120.456 150.696C120.522 150.692 120.589 150.702 120.651 150.726C120.713 150.751 120.768 150.789 120.814 150.837C120.9 150.926 120.947 151.046 120.945 151.17C120.945 151.295 120.898 151.415 120.814 151.508C120.767 151.554 120.711 151.591 120.65 151.614C120.588 151.638 120.522 151.648 120.456 151.644L118.672 151.588L119.559 153.025C119.609 153.105 119.635 153.197 119.635 153.292C119.635 153.425 119.581 153.554 119.487 153.648C119.392 153.743 119.264 153.796 119.131 153.796C119.044 153.795 118.96 153.768 118.888 153.72C118.817 153.671 118.761 153.603 118.727 153.524L117.886 152.012L117.049 153.524C117.01 153.601 116.952 153.666 116.879 153.712C116.806 153.758 116.722 153.784 116.636 153.786Z" fill="#263238"/>
<path d="M124.816 153.786C124.683 153.785 124.557 153.733 124.463 153.639C124.413 153.595 124.374 153.541 124.347 153.48C124.32 153.419 124.306 153.353 124.307 153.287C124.308 153.196 124.334 153.107 124.382 153.03L125.289 151.578L123.525 151.634C123.43 151.637 123.336 151.613 123.255 151.563C123.174 151.513 123.11 151.44 123.071 151.354C123.031 151.267 123.018 151.171 123.034 151.077C123.049 150.983 123.092 150.896 123.157 150.827C123.205 150.779 123.263 150.741 123.326 150.717C123.39 150.692 123.457 150.682 123.525 150.686L125.264 150.752L124.367 149.305C124.318 149.226 124.292 149.136 124.291 149.043C124.293 148.977 124.308 148.912 124.334 148.851C124.361 148.791 124.4 148.736 124.448 148.69C124.542 148.597 124.668 148.545 124.8 148.544C124.885 148.546 124.968 148.571 125.04 148.617C125.111 148.664 125.168 148.729 125.204 148.806L126.066 150.363L126.917 148.816C126.958 148.734 127.02 148.664 127.097 148.614C127.174 148.564 127.264 148.537 127.356 148.534C127.42 148.534 127.483 148.547 127.541 148.573C127.599 148.599 127.651 148.637 127.693 148.685C127.74 148.732 127.777 148.788 127.802 148.849C127.827 148.911 127.84 148.977 127.84 149.043C127.838 149.13 127.813 149.215 127.769 149.29L126.857 150.752L128.631 150.686C128.696 150.679 128.762 150.687 128.824 150.708C128.886 150.729 128.943 150.763 128.991 150.808C129.038 150.853 129.076 150.908 129.101 150.968C129.126 151.029 129.137 151.094 129.135 151.16C129.136 151.284 129.091 151.404 129.009 151.497C128.961 151.544 128.905 151.581 128.842 151.604C128.779 151.628 128.713 151.638 128.646 151.634L126.867 151.578L127.749 153.015C127.799 153.095 127.825 153.187 127.824 153.282C127.823 153.348 127.808 153.413 127.781 153.474C127.755 153.534 127.716 153.589 127.668 153.634C127.624 153.682 127.571 153.719 127.512 153.745C127.454 153.771 127.39 153.785 127.326 153.786C127.24 153.784 127.156 153.758 127.086 153.709C127.015 153.661 126.96 153.593 126.927 153.513L126.081 152.001L125.244 153.513C125.206 153.595 125.146 153.664 125.07 153.713C124.994 153.761 124.906 153.786 124.816 153.786Z" fill="#263238"/>
<path d="M132.991 153.786C132.858 153.785 132.732 153.733 132.638 153.639C132.543 153.546 132.488 153.42 132.487 153.287C132.485 153.196 132.509 153.107 132.557 153.03L133.464 151.578L131.7 151.634C131.633 151.637 131.566 151.626 131.503 151.603C131.439 151.579 131.381 151.544 131.332 151.497C131.25 151.405 131.205 151.286 131.205 151.162C131.205 151.039 131.25 150.919 131.332 150.827C131.381 150.78 131.439 150.743 131.502 150.719C131.565 150.695 131.633 150.684 131.7 150.686L133.444 150.752L132.552 149.305C132.503 149.226 132.477 149.136 132.476 149.043C132.478 148.977 132.493 148.912 132.519 148.851C132.546 148.791 132.585 148.736 132.633 148.69C132.727 148.597 132.853 148.545 132.985 148.544C133.071 148.545 133.155 148.57 133.228 148.616C133.3 148.662 133.357 148.728 133.394 148.806L134.251 150.363L135.102 148.816C135.143 148.734 135.205 148.664 135.282 148.614C135.359 148.564 135.449 148.537 135.541 148.534C135.605 148.534 135.668 148.547 135.726 148.573C135.784 148.599 135.836 148.637 135.878 148.685C135.925 148.732 135.962 148.788 135.987 148.849C136.012 148.911 136.025 148.977 136.025 149.043C136.023 149.13 135.998 149.215 135.954 149.29L135.042 150.752L136.816 150.686C136.881 150.679 136.947 150.687 137.009 150.708C137.071 150.729 137.128 150.763 137.176 150.808C137.223 150.853 137.261 150.908 137.286 150.968C137.311 151.029 137.322 151.094 137.32 151.16C137.321 151.284 137.276 151.404 137.194 151.497C137.146 151.544 137.09 151.581 137.027 151.604C136.964 151.628 136.898 151.638 136.831 151.634L135.052 151.578L135.934 153.015C135.984 153.095 136.01 153.187 136.009 153.282C136.01 153.348 135.996 153.414 135.969 153.475C135.942 153.536 135.903 153.59 135.853 153.634C135.809 153.682 135.756 153.719 135.697 153.745C135.639 153.771 135.575 153.785 135.511 153.786C135.425 153.784 135.341 153.758 135.271 153.709C135.2 153.661 135.145 153.593 135.112 153.513L134.266 152.001L133.429 153.513C133.391 153.597 133.329 153.667 133.251 153.715C133.173 153.764 133.082 153.788 132.991 153.786Z" fill="#263238"/>
<path d="M141.165 153.786C141.033 153.785 140.906 153.733 140.813 153.639C140.735 153.56 140.685 153.458 140.671 153.347C140.657 153.237 140.681 153.125 140.737 153.03L141.639 151.578L139.875 151.634C139.808 151.637 139.741 151.626 139.677 151.603C139.614 151.579 139.556 151.544 139.507 151.497C139.425 151.405 139.38 151.286 139.38 151.162C139.38 151.039 139.425 150.919 139.507 150.827C139.556 150.78 139.614 150.743 139.677 150.719C139.74 150.695 139.807 150.684 139.875 150.686L141.619 150.752L140.722 149.305C140.673 149.226 140.647 149.136 140.646 149.043C140.648 148.91 140.703 148.783 140.797 148.69C140.891 148.597 141.018 148.545 141.15 148.544C141.236 148.545 141.32 148.57 141.392 148.616C141.465 148.662 141.522 148.728 141.559 148.806L142.415 150.363L143.267 148.816C143.307 148.734 143.37 148.664 143.447 148.614C143.524 148.564 143.614 148.537 143.706 148.534C143.77 148.534 143.834 148.547 143.893 148.573C143.952 148.599 144.005 148.637 144.048 148.685C144.141 148.781 144.192 148.91 144.189 149.043C144.188 149.13 144.163 149.215 144.119 149.29L143.207 150.752L144.981 150.686C145.046 150.68 145.112 150.687 145.174 150.708C145.236 150.729 145.293 150.763 145.34 150.808C145.388 150.853 145.426 150.908 145.451 150.968C145.476 151.029 145.487 151.094 145.485 151.16C145.486 151.284 145.441 151.404 145.359 151.497C145.311 151.544 145.254 151.581 145.192 151.604C145.129 151.628 145.062 151.638 144.996 151.634L143.217 151.578L144.099 153.015C144.148 153.095 144.175 153.187 144.174 153.282C144.175 153.348 144.161 153.414 144.134 153.475C144.107 153.536 144.068 153.59 144.018 153.634C143.974 153.682 143.921 153.719 143.862 153.745C143.803 153.771 143.74 153.785 143.675 153.786C143.59 153.784 143.506 153.758 143.435 153.709C143.365 153.661 143.31 153.593 143.277 153.513L142.43 152.001L141.594 153.513C141.556 153.595 141.496 153.664 141.42 153.713C141.344 153.761 141.255 153.786 141.165 153.786Z" fill="#263238"/>
<path d="M149.34 153.786C149.21 153.784 149.085 153.731 148.992 153.639C148.943 153.595 148.903 153.541 148.876 153.48C148.849 153.419 148.836 153.353 148.836 153.287C148.838 153.196 148.864 153.107 148.912 153.03L149.814 151.578L148.05 151.634C147.985 151.638 147.92 151.63 147.859 151.608C147.797 151.586 147.741 151.552 147.694 151.508C147.646 151.463 147.609 151.409 147.583 151.349C147.558 151.289 147.545 151.225 147.546 151.16C147.546 151.098 147.558 151.037 147.581 150.98C147.604 150.923 147.639 150.871 147.682 150.827C147.729 150.778 147.785 150.741 147.848 150.716C147.911 150.692 147.978 150.681 148.045 150.686L149.789 150.752L148.892 149.305C148.843 149.226 148.817 149.136 148.816 149.043C148.818 148.91 148.872 148.783 148.967 148.69C149.061 148.597 149.188 148.545 149.32 148.544C149.406 148.545 149.49 148.57 149.562 148.616C149.634 148.662 149.692 148.728 149.728 148.806L150.585 150.363L151.442 148.816C151.482 148.734 151.543 148.665 151.62 148.615C151.696 148.566 151.784 148.537 151.875 148.534C151.94 148.534 152.004 148.547 152.063 148.573C152.122 148.599 152.175 148.637 152.218 148.685C152.311 148.781 152.361 148.91 152.359 149.043C152.359 149.13 152.336 149.215 152.294 149.29L151.381 150.752L153.15 150.686C153.218 150.681 153.285 150.692 153.348 150.716C153.41 150.741 153.467 150.778 153.513 150.827C153.599 150.916 153.646 151.036 153.644 151.16C153.644 151.285 153.597 151.405 153.513 151.497C153.466 151.544 153.409 151.581 153.346 151.604C153.284 151.628 153.217 151.638 153.15 151.634L151.371 151.578L152.253 153.015C152.303 153.095 152.329 153.187 152.329 153.282C152.327 153.415 152.273 153.541 152.178 153.634C152.086 153.728 151.961 153.782 151.83 153.786C151.744 153.784 151.661 153.758 151.59 153.709C151.519 153.661 151.464 153.593 151.432 153.513L150.585 152.001L149.748 153.513C149.712 153.592 149.655 153.659 149.583 153.707C149.511 153.755 149.427 153.782 149.34 153.786Z" fill="#263238"/>
<g style="mix-blend-mode:multiply">
<path d="M174.767 51.6802H85.549V57.2695H174.767V51.6802Z" fill="#257492"/>
</g>
<path d="M139.86 41.3834H120.456C120.106 41.3834 119.77 41.2443 119.522 40.9966C119.275 40.749 119.136 40.4131 119.136 40.0629C119.136 39.7127 119.275 39.3768 119.522 39.1292C119.77 38.8816 120.106 38.7424 120.456 38.7424H139.86C140.21 38.7424 140.546 38.8816 140.794 39.1292C141.041 39.3768 141.181 39.7127 141.181 40.0629C141.181 40.4131 141.041 40.749 140.794 40.9966C140.546 41.2443 140.21 41.3834 139.86 41.3834Z" fill="#257492" stroke="#263238" stroke-width="1.33739" stroke-linecap="round" stroke-linejoin="round"/>
<path d="M135.45 203.989C135.451 202.942 135.141 201.918 134.56 201.047C133.979 200.176 133.153 199.497 132.186 199.096C131.218 198.695 130.154 198.589 129.127 198.793C128.1 198.997 127.156 199.501 126.416 200.242C125.676 200.982 125.172 201.926 124.967 202.953C124.763 203.98 124.869 205.044 125.27 206.011C125.671 206.979 126.35 207.805 127.221 208.386C128.092 208.967 129.116 209.277 130.163 209.276C131.565 209.275 132.909 208.717 133.9 207.726C134.891 206.735 135.449 205.391 135.45 203.989Z" fill="#257492"/>
<path d="M132.844 201.308H127.482V206.67H132.844V201.308Z" fill="#257492" stroke="#263238" stroke-width="1.33739" stroke-linecap="round" stroke-linejoin="round"/>
<path d="M61.8307 107.77L45.234 102.352L43.7573 98.4513L40.3855 98.3455L34.267 97.1863L35.0028 98.4513L42.7039 104.041L44.604 104.988L61.9618 114.055L61.8307 107.77Z" fill="white" stroke="#263238" stroke-width="1.00396" stroke-miterlimit="10"/>
<path d="M43.7573 98.4512L42.1747 97.5037L39.0146 98.6629L39.5388 99.2929L43.7573 98.4512Z" fill="white" stroke="#263238" stroke-width="1.00396" stroke-linejoin="round"/>
<path d="M61.8307 107.77L45.234 102.352L43.7573 98.4513L40.3855 98.3455L34.267 97.1863L35.0028 98.4513L42.7039 104.041L44.604 104.988L61.9618 114.055L61.8307 107.77Z" fill="white"/>
<mask id="mask0_446_1575" style="mask-type:luminance" maskUnits="userSpaceOnUse" x="34" y="97" width="28" height="18">
<path d="M61.8307 107.77L45.234 102.352L43.7573 98.4513L40.3855 98.3455L34.267 97.1863L35.0028 98.4513L42.7039 104.041L44.604 104.988L61.9618 114.055L61.8307 107.77Z" fill="white"/>
</mask>
<g mask="url(#mask0_446_1575)">
<path opacity="0.5" d="M61.8307 107.77L45.234 102.352L43.7573 98.4513L40.3855 98.3455L34.267 97.1863L35.0028 98.4513L42.7039 104.041L44.604 104.988L61.9618 114.055L61.8307 107.77Z" fill="#D5A47B"/>
</g>
<path d="M43.7573 98.4512L42.1747 97.5037L39.0146 98.6629L39.5388 99.2929L43.7573 98.4512Z" fill="white"/>
<mask id="mask1_446_1575" style="mask-type:luminance" maskUnits="userSpaceOnUse" x="39" y="97" width="5" height="3">
<path d="M43.7573 98.4512L42.1747 97.5037L39.0146 98.6629L39.5388 99.2929L43.7573 98.4512Z" fill="white"/>
</mask>
<g mask="url(#mask1_446_1575)">
<path opacity="0.5" d="M43.7573 98.4512L42.1747 97.5037L39.0146 98.6629L39.5388 99.2929L43.7573 98.4512Z" fill="#D5A47B"/>
</g>
<mask id="mask2_446_1575" style="mask-type:luminance" maskUnits="userSpaceOnUse" x="59" y="71" width="11" height="18">
<path d="M65.3537 72.606C65.3537 72.606 65.0966 74.874 65.7367 76.3306C66.3768 77.7871 69.93 82.7213 69.93 82.7213L63.2974 88.0385C63.2974 88.0385 60.5455 82.4945 60.0214 81.5974C59.4972 80.7003 58.8672 76.8396 60.5758 74.0727C62.2843 71.3057 64.7438 70.5598 65.3537 72.606Z" fill="white"/>
</mask>
<g mask="url(#mask2_446_1575)">
<g style="mix-blend-mode:multiply" opacity="0.5">
<path d="M61.9466 79.8938L64.8245 85.8612L63.2923 88.0435L60.3994 82.8775L61.9466 79.8938Z" fill="#257492"/>
</g>
</g>
<path d="M65.3537 72.606C65.3537 72.606 65.0966 74.874 65.7367 76.3306C66.3768 77.7871 69.93 82.7213 69.93 82.7213L63.2974 88.0385C63.2974 88.0385 60.5455 82.4945 60.0214 81.5974C59.4972 80.7003 58.8672 76.8396 60.5758 74.0727C62.2843 71.3057 64.7438 70.5598 65.3537 72.606Z" fill="#E9D1BC" stroke="#263238" stroke-width="1.00396" stroke-miterlimit="10"/>
<path d="M67.41 68.4532C67.0017 65.9332 64.1138 60.8075 59.5325 61.004C56.5589 61.1351 55.1678 61.7348 53.8776 62.4656C52.8259 63.0853 51.8456 63.8188 50.9544 64.653C48.7166 67.3393 47.9304 68.0751 48.3638 70.1315C48.3283 70.9517 48.4568 71.7707 48.7418 72.5406C49.4273 74.3701 49.896 75.5646 50.4907 76.4365C50.3093 77.2883 49.8355 79.5361 49.8103 80.0502C49.7851 80.5643 51.3223 80.2064 52.0985 80.0099C53.5399 83.2355 56.1809 85.4732 57.0024 85.7303C58.4337 86.1788 60.6967 83.8251 61.8962 82.0007C63.0957 80.1762 62.1885 78.1249 62.1936 77.3084C62.1986 76.4919 64.89 74.6977 65.8879 74.1282C66.8858 73.5587 67.8132 70.9681 67.41 68.4532Z" fill="#E9D1BC"/>
<path d="M67.41 68.4532C67.0017 65.9332 64.1138 60.8075 59.5325 61.004C56.5589 61.1351 55.1678 61.7348 53.8776 62.4656C52.8259 63.0853 51.8456 63.8188 50.9544 64.653C48.7166 67.3393 47.9304 68.0751 48.3638 70.1315C48.3283 70.9517 48.4568 71.7707 48.7418 72.5406C49.4273 74.3701 49.896 75.5646 50.4907 76.4365C50.3093 77.2883 49.8355 79.5361 49.8103 80.0502C49.7851 80.5643 51.3223 80.2064 52.0985 80.0099C53.5399 83.2355 56.1809 85.4732 57.0024 85.7303C58.4337 86.1788 60.6967 83.8251 61.8962 82.0007C63.0957 80.1762 62.1885 78.1249 62.1936 77.3084C62.1986 76.4919 64.89 74.6977 65.8879 74.1282C66.8858 73.5587 67.8132 70.9681 67.41 68.4532Z" stroke="#263238" stroke-miterlimit="10"/>
<path d="M51.1157 74.9146L51.6197 76.356C51.6197 76.356 52.7033 76.7138 54.0237 75.2724" stroke="#263238" stroke-miterlimit="10" stroke-linecap="round"/>
<path d="M54.8402 81.6478C54.8402 81.6478 56.0397 81.5269 56.5236 79.8435" stroke="#263238" stroke-miterlimit="10" stroke-linecap="round"/>
<path d="M50.274 73.7098C50.274 73.7098 50.6318 72.6262 52.794 72.6262" stroke="#263238" stroke-miterlimit="10" stroke-linecap="round"/>
<path d="M61.3569 58.9981C59.7858 58.7722 58.2015 58.651 56.6143 58.6352C56.6143 58.6352 51.8666 55.8985 47.3054 58.8167C42.7442 61.7348 44.9366 66.8454 44.9366 68.1205C44.9366 69.3956 43.475 69.4007 44.3872 71.0437C45.2995 72.6868 48.384 71.7796 48.384 71.7796C48.4166 71.1599 48.5803 70.5541 48.8644 70.0024C49.1485 69.4507 49.5465 68.9656 50.032 68.5792C51.6751 67.304 52.9855 67.0268 53.5298 67.3948C53.5298 67.3948 53.1669 70.1315 53.7112 71.2252C53.7112 71.2252 55.5357 72.1374 56.0851 72.1374C56.6344 72.1374 55.7272 72.9085 57.5467 73.594C57.8782 73.713 58.2327 73.7536 58.5825 73.7125C58.9323 73.6714 59.2678 73.5497 59.5627 73.3571C59.8298 72.2483 60.4144 70.58 61.5031 70.9681C63.1008 71.5376 64.5573 75.4688 62.3952 76.8095C64.9958 77.2832 68.1458 72.6817 68.3323 68.4884C68.5188 64.2952 64.0584 59.4719 61.3569 58.9981Z" fill="#263238"/>
<path d="M53.6105 65.5955C53.6105 65.5955 54.9511 64.8747 56.5942 66.417C58.2372 67.9592 61.4325 70.0206 65.6661 68.8866" stroke="#263238" stroke-width="0.5" stroke-linecap="round" stroke-linejoin="round"/>
<path d="M53.424 64.3606C53.424 64.3606 54.3463 62.9192 55.8885 62.9192C57.4307 62.9192 61.0343 65.0814 63.9122 65.0814" stroke="#263238" stroke-width="0.5" stroke-linecap="round" stroke-linejoin="round"/>
<path d="M52.3757 67.1378C52.3757 67.1378 50.6268 64.9807 48.9837 66.7296C47.3407 68.4785 48.384 70.1316 48.384 70.1316" stroke="#263238" stroke-width="0.5" stroke-linecap="round" stroke-linejoin="round"/>
<path d="M45.3852 68.5792C46.3874 67.6754 47.0104 66.4258 47.129 65.0815C47.3357 62.8185 50.4252 60.863 52.3757 62.7177" stroke="#263238" stroke-width="0.5" stroke-linecap="round" stroke-linejoin="round"/>
<path d="M48.5704 60.3488C48.5704 60.3488 51.66 57.3651 54.2304 61.1703" stroke="#263238" stroke-width="0.5" stroke-linecap="round" stroke-linejoin="round"/>
<path d="M73.715 207.048C73.715 207.048 75.6151 210.002 75.4034 211.902L75.1968 213.802C75.1968 213.802 68.2265 215.712 66.7498 215.712C65.273 215.712 57.456 214.971 57.456 214.971L57.1183 213.63C57.0947 213.531 57.1058 213.427 57.1499 213.335C57.1939 213.244 57.2682 213.17 57.3602 213.126L64.3306 209.876L66.528 207.471L73.715 207.048Z" fill="white" stroke="#263238" stroke-width="1.00396" stroke-miterlimit="10"/>
<path d="M67.8081 214.225C69.6981 214.371 73.2866 213.217 75.3681 212.481L75.222 213.802C75.222 213.802 68.2265 215.712 66.7497 215.712C65.273 215.712 57.456 214.971 57.456 214.971L57.2141 214.013C58.464 214.018 65.3083 214.034 67.8081 214.225Z" fill="#257492" stroke="#263238" stroke-width="1.00396" stroke-miterlimit="10"/>
<path d="M64.3406 209.876L54.1951 214.291C54.1951 214.291 53.3282 216.463 54.1951 216.896C55.062 217.33 73.962 216.896 73.962 216.896C73.962 216.896 75.2673 213.464 73.206 211.161C71.1446 208.857 64.3406 209.876 64.3406 209.876Z" fill="#C8A673" stroke="#263238" stroke-width="1.00396" stroke-miterlimit="10"/>
<path d="M73.962 216.896C73.962 216.896 55.062 217.33 54.1951 216.896C53.7768 216.685 53.7616 216.075 53.8574 215.495H74.2946C74.2278 215.972 74.1165 216.441 73.962 216.896Z" fill="#257492" stroke="#263238" stroke-width="1.00396" stroke-miterlimit="10"/>
<path d="M59.5426 133.162C59.5426 133.162 56.8915 144.91 55.8886 152.258C54.8856 159.607 54.2959 174.328 54.5076 176.017C54.7193 177.705 65.273 205.995 65.273 205.995L66.3264 208.515L73.715 207.038C73.715 207.038 70.3382 196.273 69.0732 190.361C67.8082 184.449 65.0412 174.737 65.0412 173.048C65.0412 171.36 71.5932 139.114 72.0619 136.997C72.5306 134.88 74.6575 131.63 74.6575 131.63L60.5102 131.342L59.5426 133.162Z" fill="#257492" stroke="#263238" stroke-width="1.00396" stroke-miterlimit="10"/>
<path d="M59.5425 133.162C59.5425 133.162 57.9902 143.892 58.6303 151.351C59.2704 158.81 60.6463 174.691 60.6463 177.055C60.6463 179.419 64.4616 193.536 64.6783 197.971C65.016 204.377 64.5422 207.547 64.5422 207.547L64.3154 209.87C64.3154 209.87 68.7657 210.505 69.7384 210.783C70.8619 211.072 72.0213 211.198 73.1808 211.156C73.1808 211.156 74.7986 204.034 74.7986 197.966C74.7986 191.898 73.4529 179.409 72.7826 174.349C72.1123 169.288 74.224 149.768 75.4236 146.125C76.6231 142.481 79.2439 134.764 77.4799 130.823C75.7159 126.882 59.5425 133.162 59.5425 133.162Z" fill="#257492" stroke="#263238" stroke-width="1.00396" stroke-miterlimit="10"/>
<path d="M79.4405 128.847L79.2792 133.646C79.2792 133.646 76.4064 134.215 72.5357 134.885C69.3403 135.44 61.3166 134.739 58.6152 134.477C58.369 134.455 58.1414 134.337 57.9819 134.148C57.8224 133.96 57.7439 133.715 57.7634 133.469L58.0255 129.135L79.4405 128.847Z" fill="#263238"/>
<path d="M68.2113 81.0178C68.2113 81.0178 63.6753 85.9217 61.9668 88.9709C60.2582 92.0201 59.5829 96.6922 58.9428 100.371C58.3027 104.051 60.0365 112.689 59.5476 116.656L58.0003 129.15C58.0003 129.15 57.6677 129.997 58.7815 130.924C59.8953 131.851 65.3335 132.189 70.2475 132.436C72.0417 132.527 77.3993 131.372 78.2762 131.317C79.3346 131.251 79.3699 129.906 79.4153 128.847C79.627 123.873 80.5241 110.613 81.1137 104.837C82.3284 93.0584 75.6806 81.6881 68.2113 81.0178Z" fill="white" stroke="#263238" stroke-width="1.00396" stroke-miterlimit="10"/>
<g style="mix-blend-mode:multiply">
<path d="M80.5593 111.535C80.7609 108.919 80.9625 106.546 81.1389 104.837C81.1893 104.333 81.2196 103.829 81.2448 103.325L69.1941 105.341L58.842 101.813C58.8431 103.955 58.9643 106.095 59.2049 108.224L69.3605 111.066L80.5593 111.535Z" fill="#257492"/>
</g>
<g style="mix-blend-mode:multiply">
<path d="M67.7628 81.5117C67.0773 82.2728 65.7165 83.82 64.4213 85.4631L72.072 93.2398L74.592 92.2318L67.7628 81.5117Z" fill="#257492"/>
</g>
<path d="M68.2113 81.0178C68.2113 81.0178 63.6753 85.9217 61.9668 88.9709C61.4602 89.8976 61.0498 90.8738 60.7421 91.8841L69.8645 81.3454C69.3255 81.1822 68.7718 81.0724 68.2113 81.0178Z" fill="#263238"/>
<g style="mix-blend-mode:multiply">
<path d="M59.2956 98.3858L69.1941 101.642L81.2146 100.261C81.0262 97.2662 80.3609 94.3211 79.2439 91.5364L69.552 95.4223L60.8882 91.4961C60.1798 93.748 59.6473 96.0515 59.2956 98.3858Z" fill="#257492"/>
</g>
<g style="mix-blend-mode:multiply">
<path d="M76.3358 123.873C71.3154 124.716 66.1639 124.295 61.3469 122.648L58.9327 121.822L58.1818 127.87L60.9336 128.641C66.165 130.104 71.6326 130.525 77.0263 129.881L79.249 129.614C79.3646 129.369 79.4298 129.103 79.4405 128.832C79.501 127.487 79.6068 125.531 79.7429 123.288L76.3358 123.873Z" fill="#257492"/>
</g>
<g style="mix-blend-mode:multiply">
<path d="M77.6815 115.638C72.6608 116.484 67.5082 116.061 62.6926 114.408L59.6182 113.354C59.6944 114.453 59.6793 115.555 59.5728 116.651L59.215 119.559L62.2793 120.416C67.5086 121.88 72.9746 122.303 78.367 121.66L79.879 121.479C80.005 119.463 80.1511 117.316 80.3074 115.194L77.6815 115.638Z" fill="#257492"/>
</g>
<path d="M30.3969 94.3245L40.1419 102.16L40.5619 101.637L30.8169 93.8021L30.3969 94.3245Z" fill="#263238"/>
<path d="M72.9036 86.4561C72.9036 86.4561 76.4769 88.8904 76.5576 94.641C76.5928 97.161 76.3308 99.5147 75.7512 103.642C75.1716 107.77 71.573 121.212 68.7708 122.845C65.9685 124.478 61.619 121.393 61.619 121.393L40.582 107.427L35.4967 103.32L32.9767 98.5621L33.768 97.0501L39.9722 101.808L36.6307 98.7184L37.2859 97.8868L38.4955 98.7285L42.0235 100.049L42.7946 105.089L43.8832 105.835L64.008 113.188C64.008 113.188 63.756 102.357 63.9424 100.286C64.1289 98.2144 64.386 93.0081 66.6036 89.2331" fill="white"/>
<path d="M72.9036 86.4561C72.9036 86.4561 76.4769 88.8904 76.5576 94.641C76.5928 97.161 76.3308 99.5147 75.7512 103.642C75.1716 107.77 71.573 121.212 68.7708 122.845C65.9685 124.478 61.619 121.393 61.619 121.393L40.582 107.427L35.4967 103.32L32.9767 98.5621L33.768 97.0501L39.9722 101.808L36.6307 98.7184L37.2859 97.8868L38.4955 98.7285L42.0235 100.049L42.7946 105.089L43.8832 105.835L64.008 113.188C64.008 113.188 63.756 102.357 63.9424 100.286C64.1289 98.2144 64.386 93.0081 66.6036 89.2331" fill="#E9D1BC"/>
<path d="M72.9036 86.4561C72.9036 86.4561 76.4769 88.8904 76.5576 94.641C76.5928 97.161 76.3308 99.5147 75.7512 103.642C75.1716 107.77 71.573 121.212 68.7708 122.845C65.9685 124.478 61.619 121.393 61.619 121.393L40.582 107.427L35.4967 103.32L32.9767 98.5621L33.768 97.0501L39.9722 101.808L36.6307 98.7184L37.2859 97.8868L38.4955 98.7285L42.0235 100.049L42.7946 105.089L43.8832 105.835L64.008 113.188C64.008 113.188 63.756 102.357 63.9424 100.286C64.1289 98.2144 64.386 93.0081 66.6036 89.2331" stroke="black" stroke-width="0.3" stroke-miterlimit="10"/>
<path d="M64.008 113.188L71.6889 118.732L73.6797 115.204C73.6797 115.204 75.0556 114.121 75.2572 113.304C75.4588 112.488 75.2018 111.162 75.4084 110.346C75.6151 109.529 76.6432 108.763 76.739 106.787C76.8348 104.812 76.739 103.164 76.739 103.164C76.739 103.164 78.4022 96.3244 78.2208 93.3508C78.0393 90.3772 75.1716 85.1204 72.8733 85.0045C70.5751 84.8886 67.5864 85.2364 65.268 88.7442C62.9496 92.252 63.4233 102.493 63.0604 103.133C62.6976 103.773 63.2016 106.934 63.2016 106.934C63.0001 107.084 62.833 107.275 62.7114 107.495C62.5897 107.715 62.5163 107.958 62.496 108.209C62.4556 109.03 63.3427 111.051 63.3427 111.051L64.008 113.188Z" fill="white" stroke="#263238" stroke-width="1.00396" stroke-miterlimit="10"/>
<g style="mix-blend-mode:multiply">
<path d="M63.262 100.502C63.2779 101.382 63.2121 102.261 63.0655 103.128C62.7429 103.703 63.1108 106.298 63.1915 106.828C67.5117 108.169 72.0799 108.514 76.5525 107.836C76.6486 107.485 76.7061 107.125 76.7239 106.762C76.8247 104.791 76.7239 103.138 76.7239 103.138C76.7239 103.138 76.87 102.529 77.0716 101.601C72.4396 101.896 67.7893 101.526 63.262 100.502Z" fill="#257492"/>
</g>
<g style="mix-blend-mode:multiply">
<path d="M64.9555 89.3037C64.2348 90.7502 63.8316 92.9224 63.5997 95.1249C68.1751 96.871 73.1081 97.4715 77.9688 96.8738C78.1627 95.7082 78.2487 94.5272 78.2258 93.3458C78.1385 92.412 77.9179 91.4954 77.5706 90.6242C73.3265 90.7232 69.0871 90.2795 64.9555 89.3037Z" fill="#257492"/>
</g>
<path d="M63.3427 111.107L63.9929 113.188L71.6738 118.732L73.6646 115.204C73.6646 115.204 75.0405 114.121 75.2421 113.304C75.2781 113.162 75.3001 113.017 75.3077 112.871C71.26 112.801 67.2383 112.208 63.3427 111.107Z" fill="#263238"/>
<path d="M68.9018 210.717C68.9018 210.717 69.0732 206.353 69.9098 199.972C70.7464 193.591 68.7355 184.529 68.3978 183.017C68.0601 181.505 68.5692 178.149 68.2315 176.969C67.8938 175.79 66.2608 170.76 67.2235 164.924C68.1861 159.087 68.9673 143.66 68.9673 143.66C68.9673 143.66 66.5431 141.689 65.8324 139.124C65.1218 136.559 65.6661 135.752 65.6661 135.752" stroke="#263238" stroke-width="1.00396" stroke-miterlimit="10"/>
<path d="M70.0257 135.989L69.0933 141.15" stroke="#263238" stroke-width="1.00396" stroke-miterlimit="10"/>
<path d="M143.42 147.088L127.013 149.171C126.857 149.187 126.705 149.234 126.569 149.307C126.433 149.38 126.314 149.478 126.221 149.595C126.128 149.713 126.062 149.846 126.028 149.988C125.993 150.13 125.991 150.278 126.021 150.42L128.178 160.576C128.249 160.874 128.437 161.137 128.707 161.313C128.977 161.489 129.308 161.565 129.636 161.527L146.043 159.444C146.2 159.426 146.35 159.378 146.485 159.304C146.621 159.23 146.738 159.131 146.831 159.013C146.923 158.895 146.988 158.761 147.022 158.619C147.056 158.477 147.058 158.331 147.028 158.188L144.878 148.033C144.808 147.735 144.619 147.473 144.349 147.298C144.079 147.123 143.747 147.048 143.42 147.088ZM138.708 157.376L135.701 157.744L135.408 154.467C135.099 154.344 134.826 154.153 134.612 153.911C134.399 153.67 134.252 153.384 134.183 153.079C134.128 152.843 134.127 152.598 134.181 152.361C134.234 152.125 134.341 151.901 134.494 151.705C134.647 151.508 134.843 151.344 135.069 151.222C135.295 151.1 135.546 151.023 135.807 150.997C136.34 150.933 136.881 151.057 137.32 151.343C137.76 151.63 138.068 152.059 138.182 152.544C138.247 152.838 138.227 153.142 138.124 153.426C138.021 153.71 137.839 153.964 137.595 154.162L138.708 157.376Z" fill="#257492"/>
<path d="M141.797 146.54C141.507 146.574 141.213 146.507 140.974 146.352C140.735 146.196 140.567 145.964 140.504 145.7L140.294 144.708C139.993 143.353 139.171 142.145 137.98 141.308C136.788 140.47 135.309 140.06 133.815 140.154C133.061 140.194 132.325 140.383 131.658 140.708C130.99 141.034 130.406 141.488 129.946 142.041C129.485 142.593 129.159 143.231 128.988 143.91C128.818 144.59 128.809 145.295 128.96 145.978L129.2 147.123C129.228 147.25 129.227 147.381 129.197 147.508C129.167 147.634 129.109 147.754 129.026 147.858C128.943 147.963 128.838 148.05 128.717 148.115C128.595 148.179 128.46 148.22 128.321 148.234C128.03 148.271 127.735 148.205 127.495 148.049C127.255 147.894 127.088 147.659 127.028 147.394L126.825 146.429C126.619 145.527 126.612 144.596 126.805 143.692C126.998 142.788 127.387 141.929 127.949 141.167C128.51 140.405 129.233 139.756 130.073 139.259C130.913 138.761 131.854 138.426 132.838 138.273C134.972 137.942 137.161 138.383 138.953 139.503C140.744 140.624 141.999 142.338 142.458 144.291L142.699 145.43C142.727 145.558 142.725 145.691 142.694 145.818C142.663 145.946 142.602 146.067 142.517 146.171C142.432 146.276 142.324 146.363 142.2 146.427C142.076 146.49 141.938 146.529 141.797 146.54Z" fill="#257492"/>
<path d="M30.6007 43.2273C15.6201 43.2273 3.47585 36.0793 3.47585 27.2619C3.47585 18.4445 15.6201 11.2966 30.6007 11.2966C45.5814 11.2966 57.7256 18.4445 57.7256 27.2619C57.7256 36.0793 45.5814 43.2273 30.6007 43.2273Z" fill="#01759F"/>
<path d="M40.3865 35.3C42.1734 35.2947 43.9011 34.708 45.266 33.6428C46.6309 32.5777 47.5458 31.1024 47.8498 29.4762C48.1487 27.7146 47.7185 25.9137 46.6447 24.4319C45.5709 22.9501 43.9322 21.896 42.055 21.4796C40.5145 21.1518 38.9015 21.2782 37.4428 21.8409C35.984 22.4037 34.753 23.3747 33.9228 24.6172L16.5085 21.2992C15.8392 21.1638 15.1393 21.2666 14.5486 21.587C13.9578 21.9074 13.5197 22.4218 13.3217 23.0276C13.2306 23.346 13.2107 23.6783 13.2633 24.0041C13.316 24.3299 13.44 24.6424 13.6278 24.9224C13.8157 25.2024 14.0633 25.4441 14.3558 25.6327C14.6482 25.8213 14.9791 25.9529 15.3284 26.0193L15.7794 26.1026C15.8464 26.1137 15.9097 26.1389 15.9644 26.1762C16.0192 26.2135 16.0638 26.262 16.0951 26.3178C16.1229 26.3745 16.1373 26.436 16.1373 26.4983C16.1373 26.5605 16.1229 26.6221 16.0951 26.6788L15.7869 27.4146C15.6837 27.6531 15.6737 27.9173 15.7588 28.1619C15.8438 28.4064 16.0186 28.6159 16.2529 28.7543C16.4377 28.8597 16.5939 29.0026 16.7098 29.1722C16.8258 29.3418 16.8982 29.5336 16.9218 29.733C16.9439 29.9618 17.0438 30.1784 17.2071 30.3516C17.3705 30.5249 17.5889 30.6461 17.8313 30.6979L18.1845 30.7673C18.4293 30.8091 18.6823 30.7778 18.9066 30.6779C19.1309 30.5781 19.315 30.4149 19.4321 30.212C19.5881 29.9699 19.8221 29.7787 20.1013 29.6653C20.3805 29.5518 20.691 29.5216 20.9897 29.5789C21.2884 29.6362 21.5603 29.7781 21.7674 29.985C21.9746 30.1918 22.1067 30.4531 22.1454 30.7326C22.1663 30.9599 22.2649 31.1753 22.4271 31.3475C22.5892 31.5197 22.8064 31.6398 23.0473 31.6905L23.4005 31.7599C23.6453 31.8006 23.8978 31.7688 24.1218 31.6691C24.3459 31.5694 24.5301 31.4068 24.6482 31.2046C24.7607 31.0324 24.9125 30.8849 25.0928 30.7723C25.2732 30.6596 25.478 30.5845 25.6929 30.5521C25.9819 30.52 26.2483 30.3915 26.442 30.1909C26.6358 29.9902 26.7435 29.7311 26.7451 29.4623V28.671C26.7482 28.6091 26.7656 28.5485 26.7964 28.4934C26.8271 28.4383 26.8704 28.39 26.9232 28.3518C26.976 28.3136 27.0371 28.2863 27.1024 28.2719C27.1676 28.2575 27.2355 28.2563 27.3013 28.2684L32.8555 29.3235C33.0821 30.7446 33.7772 32.0668 34.8464 33.1101C35.9155 34.1534 37.3067 34.8672 38.8307 35.1543C39.3427 35.251 39.8639 35.2998 40.3865 35.3ZM41.8897 22.1113C43.5944 22.4791 45.0849 23.4297 46.0611 24.7718C47.0373 26.1139 47.4267 27.7477 47.1508 29.3443C46.8552 30.8297 45.9938 32.1683 44.7224 33.118C43.4509 34.0678 41.8534 34.5659 40.2189 34.5223C38.5843 34.4787 37.0206 33.8962 35.8107 32.8803C34.6007 31.8643 33.8244 30.482 33.6222 28.9833V28.7334L27.4967 27.5881C27.321 27.5488 27.138 27.5462 26.9611 27.5804C26.7841 27.6146 26.6176 27.6848 26.4737 27.7858C26.3297 27.8868 26.212 28.0162 26.1289 28.1645C26.0459 28.3128 25.9996 28.4763 25.9935 28.6432V29.4345C25.9918 29.5287 25.9551 29.6195 25.8893 29.6916C25.8236 29.7637 25.733 29.8126 25.6327 29.8302C25.3042 29.8737 24.9907 29.9856 24.7159 30.1576C24.4411 30.3296 24.2124 30.5571 24.0469 30.8228C24.007 30.8977 23.9429 30.9593 23.8635 30.9991C23.7841 31.0389 23.6932 31.0549 23.6035 31.0449L23.2577 30.9755C23.1701 30.9547 23.0921 30.9083 23.0352 30.8433C22.9783 30.7783 22.9457 30.6981 22.9421 30.6146C22.8947 30.1825 22.6998 29.7754 22.3855 29.4523C22.0712 29.1293 21.6539 28.9068 21.1937 28.8172C20.7336 28.7275 20.2545 28.7754 19.8257 28.9537C19.3969 29.1321 19.0406 29.4317 18.8083 29.8094C18.7698 29.8837 18.707 29.9451 18.6289 29.9849C18.5507 30.0247 18.461 30.041 18.3724 30.0315L18.0116 29.9621C17.9254 29.94 17.849 29.8931 17.7936 29.8282C17.7382 29.7633 17.7066 29.6837 17.7035 29.6011C17.6663 29.2963 17.5542 29.0035 17.3757 28.7448C17.1973 28.4862 16.9572 28.2686 16.6738 28.1087C16.591 28.0535 16.5305 27.9744 16.5019 27.8839C16.4733 27.7933 16.4783 27.6966 16.516 27.6089L16.8241 26.8731C16.8878 26.7214 16.9149 26.5587 16.9035 26.3964C16.8921 26.234 16.8424 26.0759 16.7579 25.9331C16.6735 25.7903 16.5563 25.6663 16.4145 25.5697C16.2728 25.4731 16.1099 25.4062 15.9372 25.3738L15.4788 25.2835C15.2307 25.2347 14.9958 25.1401 14.7881 25.0055C14.5805 24.8708 14.4044 24.6989 14.2704 24.4999C14.1364 24.301 14.0472 24.0791 14.0081 23.8476C13.9691 23.6161 13.9811 23.3797 14.0432 23.1525C14.1899 22.7157 14.5101 22.3462 14.9394 22.1184C15.3688 21.8905 15.8756 21.821 16.3581 21.9239L34.261 25.3599L34.3963 25.1447C35.1156 23.9621 36.2322 23.0278 37.5773 22.4831C38.9224 21.9383 40.4229 21.8127 41.8521 22.1252L41.8897 22.1113ZM40.3865 32.7178C41.3201 32.7274 42.2366 32.4863 43.0246 32.0237C43.9566 31.4586 44.6475 30.6124 44.9796 29.6295C45.3117 28.6465 45.2643 27.5876 44.8456 26.6333C44.427 25.679 43.6629 24.8883 42.6836 24.396C41.7043 23.9038 40.5706 23.7405 39.4755 23.9339C38.3804 24.1274 37.3919 24.6656 36.6785 25.4568C35.965 26.2481 35.5708 27.2434 35.563 28.2731C35.5552 29.3027 35.9343 30.303 36.6357 31.1034C37.3371 31.9038 38.3174 32.4547 39.4094 32.6623C39.7292 32.7158 40.0541 32.739 40.379 32.7317L40.3865 32.7178ZM40.3865 24.52C40.6665 24.5215 40.9458 24.547 41.2208 24.5963C41.7444 24.6993 42.2409 24.8966 42.6819 25.1768C43.123 25.457 43.5 25.8148 43.7914 26.2295C44.0827 26.6443 44.2828 27.108 44.3801 27.5942C44.4775 28.0804 44.4702 28.5796 44.3586 29.0632C44.2471 29.5467 44.0335 30.0053 43.7301 30.4127C43.4267 30.82 43.0394 31.1682 42.5903 31.4373C42.1412 31.7064 41.6391 31.8912 41.1126 31.9811C40.5862 32.071 40.0458 32.0642 39.5222 31.9612C38.7361 31.8101 38.0161 31.4474 37.4529 30.9189C36.8897 30.3904 36.5085 29.7198 36.3574 28.9915C36.2063 28.2633 36.292 27.51 36.6038 26.8266C36.9155 26.1433 37.4393 25.5605 38.1092 25.1517C38.7746 24.743 39.5573 24.5278 40.3564 24.5339L40.3865 24.52Z" fill="white"/>
<path opacity="0.6" d="M52.675 52.5912C47.752 52.5912 43.7611 50.2417 43.7611 47.3434C43.7611 44.4452 47.752 42.0957 52.675 42.0957C57.5979 42.0957 61.5888 44.4452 61.5888 47.3434C61.5888 50.2417 57.5979 52.5912 52.675 52.5912Z" fill="#01759F"/>
<path opacity="0.3" d="M66.8575 54.7431C64.836 54.7431 63.1972 53.7797 63.1972 52.5913C63.1972 51.4029 64.836 50.4395 66.8575 50.4395C68.879 50.4395 70.5177 51.4029 70.5177 52.5913C70.5177 53.7797 68.879 54.7431 66.8575 54.7431Z" fill="#01759F"/>
</svg>
