<svg width="64" height="64" viewBox="0 0 64 64" fill="none" xmlns="http://www.w3.org/2000/svg">
<g clip-path="url(#clip0_417_352)">
<rect width="64" height="64" rx="4" fill="#01759F"/>
<g opacity="0.5" clip-path="url(#clip1_417_352)" filter="url(#filter0_f_417_352)">
<path fill-rule="evenodd" clip-rule="evenodd" d="M56.4814 9.25532L59.6503 8.87231C59.6033 8.70745 59.5059 8.59721 59.4114 8.4901C59.3057 8.37011 59.1962 8.24616 59.1708 8.05864C59.1144 7.64153 59.595 7.05751 60.4716 6.81622L60.3245 5.59954L54.4341 6.31149C54.6138 7.31023 55.4697 7.84884 55.9816 7.95534C56.6995 8.10462 56.8383 8.42631 56.8571 8.60477C56.881 8.83035 56.7421 9.0632 56.4814 9.25532ZM56.7225 3.91507C56.7485 3.97622 56.7734 4.03786 56.7971 4.09995C56.8209 4.16214 56.8435 4.22476 56.865 4.2878C56.884 4.28368 56.9028 4.2784 56.9212 4.27198L59.7106 3.30637C59.7929 3.27783 59.8479 3.2265 59.8658 3.1882C59.8722 3.17445 59.8728 3.16508 59.8712 3.16083L59.7179 2.75795C59.7163 2.75376 59.7096 2.74714 59.6956 2.74113C59.6569 2.72444 59.5818 2.72265 59.5011 2.7561L56.7756 3.88914C56.757 3.89686 56.7392 3.9056 56.7225 3.91507ZM55.2433 9.56746L60.6435 8.91476L60.7127 9.48747L55.3125 10.1402L55.2433 9.56746ZM55.2239 3.5611C55.2092 3.77719 55.2999 4.17829 55.4625 4.60806C55.6243 5.03535 55.8233 5.39536 55.9801 5.54856L56.885 5.20423C56.9004 4.98555 56.8097 4.58443 56.6463 4.15753C56.4821 3.72834 56.2832 3.36841 56.1286 3.21686L55.2239 3.5611Z" fill="#96A7E1" fill-opacity="0.6"/>
</g>
<g opacity="0.5" clip-path="url(#clip2_417_352)" filter="url(#filter1_f_417_352)">
<path fill-rule="evenodd" clip-rule="evenodd" d="M2.92976 46.0933L5.04481 44.7385C4.95513 44.6377 4.84845 44.5929 4.74483 44.5493C4.62886 44.5004 4.50892 44.45 4.42682 44.3257C4.24427 44.0494 4.38519 43.4712 4.92399 43.0005L4.40384 42.1885L0.472405 44.7067C0.941168 45.3531 1.73193 45.4423 2.13113 45.3428C2.69102 45.2031 2.89937 45.3837 2.97368 45.5038C3.06769 45.6555 3.04884 45.868 2.92976 46.0933ZM1.27506 42.226C1.3144 42.2604 1.3531 42.2956 1.39112 42.3315C1.42925 42.3674 1.46671 42.4041 1.50348 42.4414C1.51557 42.432 1.52707 42.4218 1.53791 42.411L3.18479 40.7731C3.23341 40.7247 3.25485 40.6695 3.25439 40.6362C3.25422 40.6243 3.25144 40.6175 3.24889 40.615L3.00251 40.3819C2.99991 40.3794 2.99292 40.377 2.98096 40.3776C2.9478 40.379 2.89396 40.4034 2.84825 40.4547L1.30386 42.1894C1.29333 42.2012 1.28367 42.2135 1.27506 42.226ZM2.15897 46.7378L5.76324 44.4291L6.00808 44.8113L2.40381 47.12L2.15897 46.7378ZM0.0919228 42.4874C0.155405 42.6456 0.356783 42.8988 0.618963 43.1478C0.879737 43.3954 1.1438 43.5825 1.30735 43.6375L1.83092 43.0841C1.76708 42.9239 1.56568 42.6706 1.30398 42.4238C1.04087 42.1758 0.776845 41.9887 0.61546 41.9341L0.0919228 42.4874Z" fill="#96A7E1" fill-opacity="0.6"/>
</g>
<g opacity="0.5" clip-path="url(#clip3_417_352)" filter="url(#filter2_f_417_352)">
<path d="M21.2724 39.9381L21.1308 40.2347L21.3286 40.3291L21.4701 40.0325C21.4763 40.0195 21.485 40.0078 21.4957 39.9982C21.5064 39.9886 21.5189 39.9812 21.5325 39.9763L21.7818 39.8881L22.0634 39.298L21.3286 39.3115L21.1885 39.605L21.2768 39.8543C21.2816 39.8679 21.2837 39.8823 21.2829 39.8967C21.2821 39.911 21.2786 39.9251 21.2724 39.9381ZM20.5373 41.1655L20.9784 41.376L21.157 40.9756L20.7362 40.7748L20.5373 41.1655ZM20.1551 38.0851L19.7021 39.7786C19.6317 40.0418 19.5467 40.3178 19.4366 40.6403L19.9072 40.8649C19.9794 40.4883 20.0495 40.1761 20.1255 39.8919L20.5785 38.1984L20.1551 38.0851ZM20.9351 40.3841L20.8356 40.5795L21.2463 40.7754L21.3356 40.5753L20.9351 40.3841ZM22.2993 38.8036L21.5645 38.8171L21.4341 39.0904L22.1689 39.0769L22.2993 38.8036ZM25.293 39.6172L24.7505 39.2459L24.5648 39.5171L24.7457 39.6409L24.6219 39.8217L24.441 39.6979L24.2554 39.9691L24.4362 40.0929L24.3124 40.2737L24.1316 40.15L23.9459 40.4212L24.1267 40.545L24.0029 40.7258L23.8221 40.602L23.6364 40.8732L23.8173 40.997L23.6935 41.1778L23.5127 41.0541L23.327 41.3253L23.5078 41.4491L23.384 41.6299L23.2032 41.5061L23.0175 41.7773L23.1983 41.9011L23.0745 42.0819L22.8937 41.9582L22.7225 42.2083L23.323 42.4948L25.293 39.6172ZM22.2497 41.456L21.8654 41.1921L21.5382 41.6431L21.9885 41.858L22.2497 41.456ZM23.1338 39.233C23.1364 39.2472 23.1418 39.2607 23.1496 39.2728C23.1574 39.2849 23.1676 39.2953 23.1795 39.3034L23.5407 39.5515C23.5647 39.5679 23.5941 39.5742 23.6227 39.5689C23.6512 39.5636 23.6765 39.5472 23.693 39.5234L23.7551 39.4329L23.2132 39.0607L23.1512 39.151C23.143 39.1628 23.1373 39.1762 23.1343 39.1903C23.1313 39.2044 23.1311 39.2189 23.1338 39.233ZM22.4886 41.0884L22.1228 40.8371L21.9941 41.0146L22.3692 41.2722L22.4886 41.0884ZM22.5255 40.4492L22.3394 40.7201L22.52 40.8442L22.7061 40.5733C22.7142 40.5614 22.7246 40.5513 22.7367 40.5434C22.7488 40.5356 22.7623 40.5302 22.7764 40.5276L23.0365 40.4793L23.5177 39.7787C23.4983 39.7735 23.4795 39.7666 23.4614 39.758C23.4459 39.7506 23.4309 39.7419 23.4167 39.7321L23.0555 39.484C23.0247 39.4628 22.9978 39.4365 22.9759 39.4063L22.4946 40.107L22.5429 40.3671C22.5455 40.3813 22.5454 40.3958 22.5424 40.4099C22.5394 40.424 22.5337 40.4373 22.5255 40.4492ZM20.941 38.0685L21.8504 38.1074L21.9183 37.8538L21.1109 37.4334L19.429 36.9835L19.2592 37.6186L20.941 38.0685ZM22.2673 43.205L22.4561 42.8095L21.8628 42.5264L21.674 42.9219L21.8718 43.0163L21.9662 42.8185L22.1639 42.9129L22.0696 43.1107L22.2673 43.205ZM21.3031 44.0675C21.2861 44.0678 21.2692 44.0642 21.2539 44.0568L21.0561 43.9625C21.0407 43.9551 21.0273 43.9443 21.0169 43.9309L20.8822 43.7581L20.7077 43.6748L20.519 44.0704L20.6934 44.1536L20.9125 44.1496C20.9295 44.1493 20.9464 44.1529 20.9617 44.1602L21.1595 44.2546C21.1749 44.2619 21.1883 44.2727 21.1987 44.2862L21.3334 44.459L22.0023 44.7782L22.191 44.3826L21.5222 44.0635L21.3031 44.0675ZM22.4877 44.5242L22.3888 44.477L22.2 44.8725L22.2989 44.9197C22.3514 44.9447 22.4116 44.9479 22.4664 44.9285C22.5212 44.9091 22.566 44.8688 22.5911 44.8163C22.6161 44.7639 22.6193 44.7036 22.5999 44.6488C22.5805 44.594 22.5401 44.5492 22.4877 44.5242ZM19.103 41.6951L19.2918 41.2996L18.6985 41.0165L18.5097 41.412L18.7075 41.5064L18.8019 41.3086L18.9996 41.403L18.9053 41.6007L19.103 41.6951ZM17.9973 40.1963L23.5348 42.8386L23.4404 43.0364L17.9029 40.394L17.9973 40.1963ZM18.926 39.1922L19.1376 39.249L19.0808 39.4606L18.8692 39.4038L18.926 39.1922Z" fill="#96A7E1" fill-opacity="0.6"/>
<path d="M21.0392 43.603L21.1739 43.7759L21.3249 43.848L21.544 43.8439C21.561 43.8436 21.5779 43.8473 21.5932 43.8546L22.5821 44.3264L23.1483 43.1398L22.6539 42.9039L22.4179 43.3983C22.4054 43.4246 22.383 43.4447 22.3556 43.4544C22.3282 43.4641 22.2981 43.4625 22.2719 43.45L21.9752 43.3085L21.8809 43.5062L21.6831 43.4119L21.7775 43.2141L21.4808 43.0726C21.4546 43.06 21.4344 43.0376 21.4247 43.0102C21.415 42.9828 21.4166 42.9527 21.4291 42.9265L21.665 42.4321L21.3684 42.2905L20.8965 43.2793L20.6988 43.185L21.1706 42.1961L19.984 41.6299L19.465 42.7176L19.2672 42.6233L19.7862 41.5355L19.4896 41.394L19.2537 41.8884C19.2411 41.9146 19.2187 41.9348 19.1913 41.9445C19.1639 41.9542 19.1338 41.9526 19.1076 41.9401L18.8109 41.7986L18.7166 41.9963L18.5188 41.902L18.6132 41.7042L18.3165 41.5626C18.2903 41.5501 18.2701 41.5277 18.2604 41.5003C18.2507 41.4729 18.2523 41.4428 18.2648 41.4166L18.5007 40.9221L18.0063 40.6862L17.2514 42.2684C17.2264 42.3208 17.2233 42.381 17.2427 42.4358C17.262 42.4906 17.3024 42.5354 17.3548 42.5605L18.3026 43.0128L18.2358 42.824C18.231 42.8104 18.2289 42.796 18.2297 42.7816C18.2304 42.7673 18.234 42.7532 18.2402 42.7402C18.2464 42.7272 18.2551 42.7156 18.2658 42.706C18.2765 42.6963 18.289 42.6889 18.3025 42.6841L18.5947 42.5807C18.6082 42.5759 18.6226 42.5738 18.637 42.5746C18.6513 42.5753 18.6654 42.5789 18.6784 42.5851L20.5572 43.4816C20.5697 43.4554 20.5921 43.4352 20.6195 43.4255C20.6469 43.4158 20.6771 43.4174 20.7033 43.4299L20.9999 43.5715C21.0153 43.5788 21.0287 43.5896 21.0392 43.603ZM19.2405 38.7435C19.2297 38.7247 19.2135 38.7096 19.1941 38.7C19.1746 38.6904 19.1528 38.6868 19.1313 38.6896C19.1098 38.6924 19.0897 38.7015 19.0734 38.7158C19.0571 38.7301 19.0454 38.7489 19.0397 38.7698L18.983 38.9815L19.1946 39.0383L19.2514 38.8266C19.2552 38.8127 19.2561 38.7982 19.2543 38.784C19.2524 38.7697 19.2477 38.7559 19.2405 38.7435ZM18.8411 40.3561L19.0243 39.6732L18.8126 39.6164L18.6399 40.2602L18.8411 40.3561Z" fill="#96A7E1" fill-opacity="0.6"/>
<path d="M18.4789 42.854L18.5306 43.0001L20.3685 43.877L20.4628 43.6793L18.625 42.8023L18.4789 42.854Z" fill="#96A7E1" fill-opacity="0.6"/>
</g>
<g opacity="0.5" clip-path="url(#clip4_417_352)" filter="url(#filter3_f_417_352)">
<path d="M59.1777 35.9495L59.3488 36.2114L59.5234 36.0974L59.3523 35.8355C59.3448 35.824 59.3396 35.8112 59.3371 35.7977C59.3345 35.7843 59.3347 35.7704 59.3375 35.757L59.3892 35.5106L59.0488 34.9896L58.6961 35.5937L58.8654 35.8529L59.1118 35.9045C59.1252 35.9073 59.1379 35.9127 59.1492 35.9205C59.1605 35.9282 59.1702 35.9381 59.1777 35.9495ZM59.8117 37.1546L60.2011 36.9002L59.964 36.5569L59.5925 36.7996L59.8117 37.1546ZM57.1183 35.9407L58.2708 37.1472C58.45 37.3347 58.6322 37.5404 58.84 37.7895L59.2554 37.5181C58.985 37.273 58.7659 37.0615 58.5725 36.859L57.4199 35.6526L57.1183 35.9407ZM59.3733 36.4445L59.4829 36.6221L59.8455 36.3852L59.727 36.2135L59.3733 36.4445ZM58.7636 34.5531L58.4109 35.1572L58.5685 35.3985L58.9212 34.7944L58.7636 34.5531ZM60.9068 32.5221L60.3364 32.7793L60.465 33.0645L60.6551 32.9787L60.7409 33.1689L60.5507 33.2546L60.6793 33.5398L60.8694 33.4541L60.9552 33.6442L60.7651 33.7299L60.8937 34.0151L61.0838 33.9294L61.1695 34.1195L60.9794 34.2052L61.108 34.4904L61.2981 34.4047L61.3838 34.5948L61.1937 34.6806L61.3223 34.9658L61.5125 34.88L61.5982 35.0702L61.4081 35.1559L61.5367 35.4411L61.7268 35.3554L61.8125 35.5455L61.6224 35.6312L61.741 35.8942L62.2712 35.5478L60.9068 32.5221ZM60.8954 35.9063L60.4906 36.0881L60.6954 36.5773L61.093 36.3176L60.8954 35.9063ZM59.5258 34.0873C59.5386 34.0922 59.5522 34.0945 59.5659 34.0941C59.5796 34.0937 59.5931 34.0906 59.6056 34.085L59.9861 33.9141C60.0113 33.9027 60.0309 33.8819 60.0408 33.8561C60.0506 33.8303 60.0498 33.8016 60.0386 33.7764L59.9958 33.6811L59.425 33.9374L59.4677 34.0325C59.4733 34.045 59.4813 34.0563 59.4912 34.0657C59.5012 34.0751 59.5129 34.0824 59.5258 34.0873ZM60.7148 35.5301L60.3295 35.7032L60.41 35.8956L60.8051 35.7182L60.7148 35.5301ZM60.2134 35.1837L60.3416 35.4691L60.5318 35.3837L60.4036 35.0984C60.398 35.0859 60.3949 35.0724 60.3945 35.0587C60.3941 35.045 60.3965 35.0314 60.4013 35.0186L60.4908 34.7832L60.1594 34.0453C60.1456 34.0585 60.1307 34.0703 60.1147 34.0808C60.101 34.0897 60.0865 34.0976 60.0716 34.1043L59.691 34.2752C59.6586 34.2897 59.6239 34.2985 59.5885 34.3014L59.92 35.0395L60.1553 35.129C60.1681 35.1338 60.1798 35.1412 60.1898 35.1506C60.1998 35.16 60.2078 35.1712 60.2134 35.1837ZM57.4937 35.2936L57.9754 34.5735L57.8029 34.3928L57.0615 34.8411L55.8633 35.9858L56.2956 36.4382L57.4937 35.2936ZM62.3261 36.7576L62.0979 36.4084L61.5741 36.7506L61.8022 37.0998L61.9768 36.9858L61.8628 36.8112L62.0374 36.6971L62.1514 36.8717L62.3261 36.7576ZM62.55 37.9684C62.5418 37.9824 62.5305 37.9943 62.5169 38.0031L62.3423 38.1172C62.3288 38.1261 62.3134 38.1316 62.2973 38.1335L62.0901 38.1574L61.9361 38.258L62.1642 38.6072L62.3182 38.5066L62.4234 38.3265C62.4315 38.3125 62.4429 38.3007 62.4564 38.2918L62.631 38.1777C62.6446 38.1689 62.66 38.1633 62.6761 38.1614L62.8833 38.1375L63.4738 37.7517L63.2456 37.4025L62.6551 37.7883L62.55 37.9684ZM63.5075 37.2314L63.4202 37.2884L63.6484 37.6376L63.7357 37.5806C63.782 37.5503 63.8144 37.5029 63.8257 37.4488C63.8371 37.3947 63.8265 37.3382 63.7962 37.2919C63.766 37.2456 63.7185 37.2132 63.6644 37.2019C63.6103 37.1905 63.5538 37.2011 63.5075 37.2314ZM59.5324 38.5828L59.3042 38.2336L58.7804 38.5758L59.0086 38.925L59.1832 38.8109L59.0691 38.6363L59.2437 38.5223L59.3578 38.6969L59.5324 38.5828ZM57.7666 38.7399L62.6555 35.5459L62.7696 35.7205L57.8806 38.9145L57.7666 38.7399ZM57.41 37.4879L57.5609 37.344L57.7048 37.4949L57.5539 37.6388L57.41 37.4879Z" fill="#96A7E1" fill-opacity="0.6"/>
<path d="M62.0417 37.9532L62.2489 37.9292L62.3823 37.8421L62.4874 37.662C62.4956 37.648 62.5069 37.6361 62.5205 37.6272L63.3935 37.0569L62.7091 36.0092L62.2725 36.2944L62.5577 36.7309C62.5729 36.7541 62.5782 36.7823 62.5725 36.8094C62.5668 36.8364 62.5506 36.8601 62.5275 36.8753L62.2656 37.0464L62.3796 37.221L62.205 37.335L62.0909 37.1604L61.829 37.3316C61.8059 37.3467 61.7777 37.352 61.7506 37.3463C61.7235 37.3406 61.6998 37.3244 61.6847 37.3013L61.3995 36.8648L61.1376 37.0359L61.708 37.9089L61.5334 38.023L60.963 37.15L59.9154 37.8344L60.5428 38.7947L60.3682 38.9088L59.7408 37.9485L59.4789 38.1196L59.7641 38.5561C59.7792 38.5792 59.7845 38.6075 59.7788 38.6345C59.7731 38.6616 59.7569 38.6853 59.7338 38.7004L59.4719 38.8715L59.586 39.0461L59.4114 39.1602L59.2973 38.9856L59.0354 39.1567C59.0122 39.1718 58.984 39.1772 58.9569 39.1715C58.9299 39.1658 58.9062 39.1496 58.891 39.1265L58.6059 38.6899L58.1693 38.9751L59.0819 40.372C59.1122 40.4182 59.1596 40.4506 59.2137 40.4619C59.2679 40.4733 59.3243 40.4627 59.3706 40.4325L60.2075 39.8858L60.0208 39.8466C60.0074 39.8438 59.9947 39.8384 59.9834 39.8307C59.9721 39.8229 59.9624 39.8131 59.9549 39.8016C59.9475 39.7901 59.9423 39.7773 59.9398 39.7638C59.9372 39.7504 59.9374 39.7366 59.9402 39.7232L60.0007 39.4345C60.0035 39.4211 60.0089 39.4084 60.0167 39.397C60.0244 39.3857 60.0343 39.3761 60.0457 39.3686L61.7045 38.2849C61.6894 38.2617 61.684 38.2335 61.6897 38.2064C61.6954 38.1794 61.7116 38.1557 61.7347 38.1405L61.9967 37.9694C62.0102 37.9606 62.0256 37.955 62.0417 37.9532ZM57.2008 37.0102C57.1802 37.0097 57.1599 37.0154 57.1424 37.0264C57.125 37.0375 57.1113 37.0534 57.1029 37.0723C57.0946 37.0912 57.092 37.1121 57.0956 37.1324C57.0991 37.1527 57.1086 37.1716 57.1229 37.1865L57.2668 37.3374L57.4177 37.1934L57.2738 37.0425C57.2643 37.0326 57.253 37.0246 57.2405 37.0191C57.228 37.0135 57.2145 37.0105 57.2008 37.0102ZM58.3141 38.1331L57.8496 37.6462L57.6987 37.7901L58.1366 38.2491L58.3141 38.1331Z" fill="#96A7E1" fill-opacity="0.6"/>
<path d="M60.1658 39.6637L60.3101 39.694L61.9327 38.6339L61.8187 38.4593L60.1961 39.5194L60.1658 39.6637Z" fill="#96A7E1" fill-opacity="0.6"/>
</g>
<g opacity="0.5" clip-path="url(#clip5_417_352)" filter="url(#filter4_f_417_352)">
<path d="M55.8598 24.9643L56.7416 24.0825L57.4452 24.7861L56.5635 25.6679L55.8598 24.9643Z" fill="#96A7E1" fill-opacity="0.6"/>
<path d="M59.1155 24.1411L57.3872 22.4128C57.3003 22.3259 57.1848 22.2781 57.0619 22.2781C56.939 22.2781 56.8235 22.3259 56.7366 22.4128L54.1892 24.9602C54.1023 25.0471 54.0545 25.1626 54.0545 25.2855C54.0545 25.4084 54.1023 25.5239 54.1892 25.6108L54.2043 25.6258L54.1991 25.631L55.8973 27.3292L55.9025 27.324L55.9175 27.3391C56.0072 27.4288 56.125 27.4736 56.2428 27.4736C56.3606 27.4736 56.4784 27.4288 56.5681 27.3391L59.1155 24.7917C59.2948 24.6123 59.2948 24.3205 59.1155 24.1411ZM55.2586 24.9641L56.7424 23.4802L58.048 24.7859L56.5642 26.2697L55.2586 24.9641ZM53.4807 26.3486L53.8974 25.9319L55.5953 27.6299L55.1786 28.0466L53.4807 26.3486ZM53.6528 27.1221L53.2559 27.973L52.8302 28.4241C52.607 28.6606 52.3253 28.7963 52 28.7963V29.2219C52.4419 29.2219 52.8365 29.0376 53.1398 28.7162L53.5611 28.2697L54.4062 27.8755L53.6528 27.1221Z" fill="#96A7E1" fill-opacity="0.6"/>
</g>
<g opacity="0.5" clip-path="url(#clip6_417_352)" filter="url(#filter5_f_417_352)">
<path d="M46.6848 11.4932L46.7028 11.393L46.5359 11.3344C46.5359 11.3264 46.5358 11.3184 46.5354 11.3103L46.7 11.2457L46.6784 11.1461L46.5018 11.1558C46.4987 11.1483 46.4955 11.1409 46.4922 11.1336L46.6196 11.0109L46.5615 10.9273L46.4019 11.004C46.3963 10.9983 46.3906 10.9928 46.3847 10.9874L46.4554 10.8251L46.3698 10.77L46.2516 10.9019C46.2442 10.8987 46.2368 10.8957 46.2293 10.8931L46.2327 10.7161L46.1325 10.698L46.074 10.8648C46.066 10.8647 46.0579 10.8648 46.0498 10.8652L45.9852 10.7006L45.8857 10.7223L45.8954 10.8988C45.8879 10.9019 45.8805 10.9051 45.8732 10.9085L45.7505 10.781L45.6669 10.8393L45.7436 10.9988C45.7379 11.0044 45.7324 11.0102 45.727 11.0161L45.5647 10.9453L45.5097 11.031L45.6415 11.1492C45.6383 11.1565 45.6353 11.164 45.6327 11.1715L45.4557 11.168L45.4376 11.2682L45.6045 11.3268C45.6044 11.3348 45.6045 11.3428 45.6049 11.3509L45.4403 11.4155L45.4619 11.515L45.6385 11.5054C45.6416 11.5129 45.6448 11.5202 45.6482 11.5275L45.5208 11.6503L45.5789 11.734L45.7384 11.6572C45.7441 11.6629 45.7498 11.6684 45.7557 11.6738L45.685 11.8362L45.7706 11.8912L45.887 11.7613L45.9233 11.5814L45.9206 11.5694L45.9071 11.5843L45.9183 11.5587L45.9173 11.5542L45.8498 11.4892L45.8239 11.5017L45.8446 11.4818L45.8061 11.3931L45.7753 11.3948L45.804 11.3835L45.8022 11.2869L45.775 11.2774L45.8038 11.278L45.8392 11.188L45.8164 11.1676L45.8445 11.1798L45.9116 11.1102L45.8992 11.0843L45.9191 11.105L46.0077 11.0665L46.006 11.0357L46.0173 11.0644L46.114 11.0626L46.1235 11.0355L46.1229 11.0642L46.2128 11.0996L46.2333 11.0768L46.2211 11.1049L46.2907 11.172L46.3165 11.1595L46.2959 11.1794L46.3343 11.2681L46.3652 11.2664L46.3364 11.2777L46.3383 11.3743L46.3654 11.3838L46.3366 11.3833L46.3087 11.4543L46.3156 11.4862L46.324 11.4937L46.3166 11.4906L46.3281 11.5434L46.3292 11.5561L46.3268 11.6297L46.3258 11.6382L46.2965 11.783L46.39 11.8802L46.4736 11.8221L46.3968 11.6625C46.4025 11.6568 46.408 11.6511 46.4134 11.6452L46.5757 11.716L46.6307 11.6303L46.4989 11.5121C46.5021 11.5047 46.505 11.4973 46.5077 11.4898L46.6848 11.4932Z" fill="#96A7E1" fill-opacity="0.6"/>
<path d="M46.0631 11.2755C46.0375 11.2811 46.0152 11.2966 46.0011 11.3186C45.9869 11.3406 45.9821 11.3674 45.9876 11.3929L46.0262 11.5701L46.0264 11.5913L45.8809 12.3138L45.8787 12.3766L46.0057 12.9599L46.1986 12.9179L46.0783 12.3654L46.0782 12.3443L46.2236 11.6218L46.2257 11.5589L46.1805 11.3509C46.1749 11.3254 46.1594 11.3031 46.1374 11.2889C46.1154 11.2748 46.0886 11.27 46.0631 11.2755ZM45.9364 13.5121C45.9924 14.2768 46.1569 15.0387 46.4035 15.6688C46.4102 15.6859 46.4228 15.7 46.439 15.7086C46.4552 15.7172 46.474 15.7198 46.4919 15.7157L46.8903 15.629C46.9082 15.6252 46.9242 15.6151 46.9354 15.6006C46.9466 15.586 46.9521 15.5679 46.9511 15.5496C46.9136 14.8739 46.7465 14.1127 46.4794 13.3939L45.9364 13.5121ZM46.4064 13.0574C46.402 13.0374 46.3899 13.0199 46.3726 13.0088C46.3554 12.9977 46.3344 12.9939 46.3144 12.9983L45.9222 13.0836C45.9022 13.088 45.8847 13.1001 45.8736 13.1174C45.8625 13.1347 45.8588 13.1556 45.8631 13.1757L45.9144 13.4114L46.4577 13.2931L46.4064 13.0574ZM48.2921 10.6892L48.5517 10.6327L48.5791 10.7587L48.3195 10.8152L48.2921 10.6892ZM49.0506 9.97003L49.1521 10.4361C49.1557 10.4528 49.1525 10.4702 49.1433 10.4846C49.1341 10.499 49.1195 10.5091 49.1028 10.5128L48.9044 10.5559L48.9319 10.6819L49.1302 10.6387C49.1803 10.6278 49.224 10.5974 49.2517 10.5542C49.2794 10.5111 49.2889 10.4587 49.278 10.4086L49.1766 9.94261L49.0506 9.97003ZM48.562 10.1951L48.7131 10.1622L49.1721 12.2706L49.0209 12.3036L48.562 10.1951ZM48.9366 12.859C48.9925 13.6238 49.157 14.3856 49.4038 15.0157C49.4104 15.0328 49.423 15.0469 49.4392 15.0555C49.4554 15.0641 49.4742 15.0666 49.4921 15.0626L49.8904 14.9759C49.9083 14.9721 49.9244 14.9621 49.9355 14.9475C49.9467 14.9329 49.9523 14.9149 49.9512 14.8965C49.9137 14.2209 49.7467 13.4596 49.4797 12.7408L48.9366 12.859ZM48.8633 12.5226L48.9146 12.7583L49.4578 12.64L49.4065 12.4043C49.4022 12.3843 49.39 12.3668 49.3728 12.3557C49.3555 12.3446 49.3345 12.3408 49.3145 12.3452L48.9224 12.4305C48.9023 12.4349 48.8849 12.4471 48.8738 12.4643C48.8627 12.4816 48.8589 12.5025 48.8633 12.5226ZM47.2148 10.4686L47.15 10.4827L47.6382 13.0743L47.8481 13.0286L47.2148 10.4686ZM48.1601 13.6256L47.6026 13.747C47.5969 13.9321 47.5771 14.1256 47.5575 14.3138C47.5117 14.7568 47.4684 15.1762 47.5972 15.4751L48.8832 15.1952C48.8762 14.8698 48.6624 14.5063 48.4366 14.1225C48.3407 13.9593 48.2422 13.7916 48.1601 13.6256ZM47.5469 13.4571L48.0902 13.3389L48.131 13.5264L47.5877 13.6446L47.5469 13.4571ZM47.9035 13.1221L47.6267 13.1823L47.5856 13.3432L48.0077 13.2513L47.9035 13.1221Z" fill="#96A7E1" fill-opacity="0.6"/>
</g>
<g opacity="0.5" clip-path="url(#clip7_417_352)" filter="url(#filter6_f_417_352)">
<path d="M20.7473 55.9093L20.8307 55.8166L20.6947 55.6479C20.7 55.6396 20.705 55.6311 20.7098 55.6224L20.923 55.6614L20.9647 55.5437L20.7745 55.4398C20.7762 55.43 20.7776 55.4203 20.7788 55.4105L20.9908 55.3649L20.9843 55.2403L20.7686 55.2172C20.7664 55.2077 20.764 55.1982 20.7613 55.1888L20.9398 55.0654L20.8861 54.9528L20.6779 55.0138C20.6723 55.0057 20.6664 54.9978 20.6603 54.9902L20.7782 54.8081L20.6855 54.7246L20.5169 54.8605C20.5086 54.8553 20.5001 54.8502 20.4914 54.8454L20.5304 54.6322L20.4128 54.5905L20.3088 54.7807C20.2991 54.779 20.2893 54.7776 20.2795 54.7764L20.2341 54.5645L20.1093 54.5711L20.0862 54.7868C20.0767 54.789 20.0672 54.7914 20.0578 54.7941L19.9344 54.6156L19.8218 54.6693L19.8828 54.8775C19.8747 54.8831 19.8669 54.889 19.8592 54.895L19.6771 54.7772L19.5936 54.8699L19.7296 55.0386C19.7244 55.0469 19.7193 55.0554 19.7145 55.064L19.5013 55.0251L19.4596 55.1426L19.6498 55.2466C19.6481 55.2564 19.6467 55.2661 19.6455 55.2759L19.4335 55.3215L19.4401 55.4462L19.6558 55.4693C19.658 55.4788 19.6604 55.4883 19.6631 55.4977L19.4846 55.6211L19.5383 55.7337L19.7434 55.6736L19.8973 55.5096L19.9023 55.4954L19.8785 55.5022L19.9068 55.4827L19.9086 55.4775L19.8802 55.3662L19.8452 55.3624L19.8796 55.3551L19.8968 55.2379L19.8636 55.2197L19.9008 55.2265L19.9612 55.1247L19.9391 55.0973L19.9687 55.1164L20.0637 55.0456L20.0531 55.0096L20.0745 55.0405L20.1893 55.0113L20.1931 54.9763L20.2004 55.0107L20.3176 55.0278L20.3358 54.9946L20.329 55.0319L20.4308 55.0923L20.4582 55.0702L20.4391 55.0998L20.5099 55.1947L20.546 55.1842L20.515 55.2055L20.5442 55.3203L20.5792 55.3241L20.5448 55.3315L20.5277 55.4486L20.5609 55.4668L20.5237 55.46L20.4632 55.5618L20.4853 55.5892L20.4557 55.5701L20.3807 55.626L20.3674 55.6637L20.3713 55.677L20.3655 55.6689L20.3434 55.7314L20.3364 55.7453L20.2863 55.8204L20.2798 55.8286L20.1559 55.9605L20.1905 56.122L20.3151 56.1155L20.3381 55.8997C20.3477 55.8975 20.3572 55.8951 20.3666 55.8925L20.4899 56.0709L20.6025 56.0173L20.5416 55.809C20.5496 55.8034 20.5575 55.7976 20.5651 55.7915L20.7473 55.9093Z" fill="#96A7E1" fill-opacity="0.6"/>
<path d="M20.2404 55.2813C20.2102 55.2707 20.177 55.2724 20.148 55.2862C20.1191 55.3 20.0968 55.3247 20.086 55.3549L20.0118 55.5644L19.9983 55.5865L19.3804 56.2451L19.3376 56.3092L19.0933 56.9986L19.3213 57.0794L19.5527 56.4264L19.5662 56.4043L20.1841 55.7457L20.2269 55.6815L20.314 55.4357C20.3247 55.4055 20.323 55.3722 20.3092 55.3433C20.2954 55.3144 20.2706 55.2921 20.2404 55.2813ZM18.6647 57.5291C18.2293 58.3617 17.9088 59.2614 17.7589 60.0769C17.7548 60.099 17.7588 60.1219 17.7701 60.1413C17.7814 60.1607 17.7993 60.1754 17.8206 60.1828L18.2915 60.3497C18.3127 60.3573 18.3359 60.3572 18.3569 60.3492C18.3779 60.3412 18.3954 60.326 18.4062 60.3062C18.8032 59.5783 19.1207 58.6776 19.3065 57.7565L18.6647 57.5291ZM19.4477 57.3589C19.4561 57.3352 19.4547 57.3091 19.4439 57.2864C19.4331 57.2638 19.4137 57.2463 19.39 57.2379L18.9265 57.0737C18.9028 57.0653 18.8768 57.0666 18.8541 57.0774C18.8314 57.0883 18.8139 57.1077 18.8055 57.1313L18.7068 57.41L19.349 57.6375L19.4477 57.3589ZM22.9405 56.1097L23.2473 56.2184L23.1946 56.3673L22.8877 56.2586L22.9405 56.1097ZM24.1948 55.8503L23.9996 56.4012C23.9926 56.4209 23.9781 56.4371 23.9592 56.4461C23.9403 56.4551 23.9186 56.4562 23.8988 56.4493L23.6644 56.3662L23.6116 56.5151L23.8461 56.5982C23.9053 56.6191 23.9704 56.6156 24.0271 56.5886C24.0838 56.5616 24.1275 56.5131 24.1485 56.454L24.3437 55.9031L24.1948 55.8503ZM23.5406 55.7693L23.7192 55.8326L22.8361 58.3249L22.6575 58.2616L23.5406 55.7693ZM22.211 58.7857C21.7756 59.6183 21.4552 60.5179 21.3053 61.3335C21.3013 61.3556 21.3053 61.3785 21.3166 61.3979C21.3279 61.4173 21.3458 61.432 21.3671 61.4394L21.8379 61.6062C21.859 61.6139 21.8822 61.6137 21.9032 61.6058C21.9242 61.5978 21.9417 61.5826 21.9525 61.5628C22.3496 60.8349 22.667 59.9342 22.853 59.0131L22.211 58.7857ZM22.3519 58.3879L22.2532 58.6665L22.8953 58.8941L22.994 58.6155C23.0024 58.5918 23.0011 58.5657 22.9903 58.543C22.9794 58.5203 22.9601 58.5029 22.9364 58.4945L22.4729 58.3302C22.4492 58.3218 22.4231 58.3232 22.4004 58.334C22.3777 58.3448 22.3603 58.3642 22.3519 58.3879ZM21.9609 55.1845L21.8844 55.1573L20.7198 58.1717L20.9678 58.2596L21.9609 55.1845ZM20.9075 59.0828L20.2484 58.8493C20.123 59.0384 19.9774 59.2272 19.8356 59.4106C19.5019 59.8424 19.1859 60.2513 19.1272 60.6458L20.6473 61.1844C20.8501 60.8409 20.862 60.3244 20.8746 59.7788C20.8801 59.547 20.8858 59.3087 20.9075 59.0828ZM20.3775 58.5115L21.0197 58.7391L20.9412 58.9607L20.299 58.7331L20.3775 58.5115ZM20.9652 58.3927L20.638 58.2768L20.4914 58.4178L20.9903 58.5946L20.9652 58.3927Z" fill="#96A7E1" fill-opacity="0.6"/>
</g>
<g opacity="0.5" clip-path="url(#clip8_417_352)" filter="url(#filter7_f_417_352)">
<path d="M19.9024 15.7398L19.5332 16.1078L19.3762 15.7305L19.6352 15.4727L19.9024 15.7398ZM19.4454 16.1957L19.1793 16.4629L19.0223 16.0844L19.2895 15.8184L19.4454 16.1957ZM18.9356 16.1711L19.0914 16.5496L18.8254 16.8168L18.6684 16.4383L18.9356 16.1711ZM18.5817 16.525L18.7375 16.9035L18.4727 17.1695L18.3157 16.791L18.5817 16.525ZM18.2278 16.8789L18.3848 17.2574L18.1188 17.5234L17.9618 17.1438L18.2278 16.8789ZM18.0321 17.6113L17.7719 17.8715L17.5036 17.602L17.8739 17.2316L18.0321 17.6113ZM17.0125 17.7918L17.5868 18.366C17.4719 18.3719 17.3594 18.4211 17.2704 18.509C17.1438 18.6355 17.0957 18.8137 17.145 18.9719L16.961 19.157L16.8391 19.0352C16.8004 18.9953 16.7489 18.9742 16.6926 18.9742C16.6375 18.9742 16.5848 18.9965 16.5461 19.0352L15.7762 19.8051C15.7364 19.8438 15.7153 19.8953 15.7153 19.9516C15.7153 20.0066 15.7375 20.0594 15.7762 20.098L15.8969 20.2188C15.85 20.2574 15.7926 20.2785 15.7329 20.2785C15.6637 20.2785 15.5993 20.2516 15.5512 20.2035L15.1727 19.825C15.0778 19.7301 15.0731 19.5789 15.1586 19.4793L15.2817 19.6023C15.3204 19.6422 15.3719 19.6633 15.4282 19.6633C15.4844 19.6633 15.536 19.641 15.5747 19.6023L16.3446 18.8324C16.3844 18.7938 16.4055 18.7422 16.4055 18.6859C16.4055 18.6309 16.3832 18.5781 16.3446 18.5395L16.2204 18.4141L16.4032 18.2312C16.5637 18.2793 16.7418 18.2324 16.8684 18.1047C16.9563 18.018 17.0055 17.9055 17.0125 17.7918Z" fill="#96A7E1" fill-opacity="0.6"/>
<path d="M16.8801 19.2368L15.9789 20.1392L15.8571 20.0161C15.8395 19.9986 15.8301 19.9751 15.8301 19.9505C15.8301 19.9259 15.8395 19.9025 15.8571 19.8849L16.627 19.115C16.6633 19.0786 16.7231 19.0786 16.7594 19.115L16.8801 19.2368ZM16.2637 18.6193C16.2813 18.6368 16.2907 18.6603 16.2907 18.6849C16.2907 18.7095 16.2813 18.7329 16.2637 18.7505L15.4938 19.5204C15.4762 19.538 15.4528 19.5474 15.4282 19.5474C15.4035 19.5474 15.3801 19.538 15.3625 19.5204L15.2383 19.3974L16.1395 18.4962L16.2637 18.6193ZM17.909 18.1681C17.9196 18.1786 17.9184 18.1986 17.9078 18.2115L17.7508 18.3685L17.0078 17.6267L17.1672 17.4673C17.1778 17.4568 17.1977 17.4579 17.2106 17.4685L17.384 17.6419L17.7332 17.9923L17.909 18.1681Z" fill="#96A7E1" fill-opacity="0.6"/>
</g>
<g opacity="0.5" clip-path="url(#clip9_417_352)" filter="url(#filter8_f_417_352)">
<path d="M51.9027 44.3349L51.7263 44.9754L51.3142 44.6567L51.4382 44.2078L51.9027 44.3349ZM51.6844 45.1282L51.5586 45.592L51.1457 45.272L51.2736 44.8088L51.6844 45.1282ZM51.1045 45.4228L51.516 45.7435L51.3901 46.2073L50.9773 45.8873L51.1045 45.4228ZM50.936 46.0381L51.3476 46.3588L51.2223 46.8205L50.8094 46.5005L50.936 46.0381ZM50.7676 46.6533L51.1804 46.9733L51.0538 47.4358L50.6403 47.1145L50.7676 46.6533ZM51.0133 47.5879L50.8895 48.0401L50.4222 47.9111L50.5984 47.2673L51.0133 47.5879ZM49.9984 48.4313L50.9967 48.7046C50.8732 48.7836 50.7797 48.9091 50.7366 49.0626C50.6764 49.2827 50.7356 49.5102 50.89 49.6543L50.8032 49.9755L50.5913 49.9175C50.5233 49.8978 50.4529 49.907 50.3906 49.9425C50.3296 49.9773 50.2853 50.0352 50.2669 50.1024L49.9005 51.441C49.8808 51.509 49.8899 51.5794 49.9255 51.6416C49.9602 51.7026 50.0182 51.747 50.0854 51.7654L50.2953 51.8228C50.2678 51.8952 50.2175 51.9548 50.1513 51.9926C50.0748 52.0362 49.9864 52.0471 49.9029 52.0242L49.2448 51.844C49.0798 51.7989 48.9791 51.6344 49.011 51.4702L49.2249 51.5287C49.2929 51.5484 49.3633 51.5392 49.4256 51.5037C49.4879 51.4682 49.5309 51.411 49.5493 51.3438L49.9157 50.0052C49.9354 49.9372 49.9262 49.8668 49.8907 49.8046C49.8559 49.7436 49.798 49.6992 49.7308 49.6808L49.5141 49.6204L49.6011 49.3026C49.8092 49.2544 49.9768 49.0901 50.0363 48.8688C50.0789 48.7172 50.0623 48.5616 49.9984 48.4313Z" fill="#96A7E1" fill-opacity="0.6"/>
<path d="M50.7639 50.1148L50.3357 51.6828L50.1231 51.6235C50.0925 51.6151 50.0673 51.5951 50.0518 51.5679C50.0363 51.5406 50.0319 51.5087 50.0402 51.4782L50.4067 50.1396C50.4239 50.0765 50.4901 50.0387 50.5533 50.056L50.7639 50.1148ZM49.6915 49.8201C49.722 49.8285 49.7472 49.8485 49.7627 49.8758C49.7783 49.903 49.7827 49.9349 49.7743 49.9654L49.4079 51.304C49.3995 51.3345 49.3795 51.3597 49.3523 51.3753C49.325 51.3908 49.2931 51.3952 49.2626 51.3868L49.0474 51.329L49.4763 49.7623L49.6915 49.8201ZM51.2284 48.2819C51.2467 48.2869 51.258 48.3097 51.2545 48.3306L51.1797 48.6036L49.8888 48.2513L49.9646 47.9742C49.9697 47.9559 49.9925 47.9446 50.0134 47.9482L50.3149 48.0307L50.9228 48.1982L51.2284 48.2819Z" fill="#96A7E1" fill-opacity="0.6"/>
</g>
<g opacity="0.5" clip-path="url(#clip10_417_352)" filter="url(#filter9_f_417_352)">
<path d="M8.30249 3.42756L7.94749 3.07256C7.8335 2.95926 7.68303 2.89005 7.52282 2.87723C7.36261 2.86442 7.20305 2.90882 7.07249 3.00256C6.91649 3.11856 6.75499 3.24156 6.59149 3.37631C6.5629 3.40002 6.53987 3.42975 6.52406 3.46336C6.50825 3.49698 6.50003 3.53366 6.49999 3.57081V4.41756C6.49996 4.48353 6.48692 4.54884 6.46161 4.60976C6.4363 4.67067 6.39922 4.726 6.35249 4.77256L5.89749 5.22756C5.85093 5.27429 5.7956 5.31137 5.73469 5.33668C5.67377 5.36199 5.60846 5.37503 5.54249 5.37506H4.74699C4.70883 5.37509 4.67118 5.38379 4.63688 5.40051C4.60258 5.41723 4.57252 5.44152 4.54899 5.47156C4.48932 5.54823 4.43216 5.62356 4.37749 5.69756C4.28375 5.82811 4.23935 5.98768 4.25216 6.14789C4.26498 6.3081 4.33419 6.45857 4.44749 6.57256L4.80249 6.92756C4.91648 7.04086 5.06696 7.11007 5.22717 7.12289C5.38737 7.13571 5.54694 7.0913 5.67749 6.99756C6.23761 6.58297 6.76348 6.12399 7.24999 5.62506C7.6533 5.20981 8.0283 4.76799 8.37249 4.30256C8.46623 4.17201 8.51064 4.01244 8.49782 3.85223C8.485 3.69203 8.41579 3.54155 8.30249 3.42756ZM7.29424 4.41931C7.28844 4.42513 7.28154 4.42975 7.27395 4.4329C7.26635 4.43605 7.25821 4.43767 7.24999 4.43767C7.24177 4.43767 7.23363 4.43605 7.22604 4.4329C7.21844 4.42975 7.21155 4.42513 7.20574 4.41931L6.95574 4.16931C6.94993 4.1635 6.94532 4.1566 6.94218 4.14901C6.93903 4.14142 6.93741 4.13328 6.93741 4.12506C6.93741 4.11684 6.93903 4.10871 6.94218 4.10111C6.94532 4.09352 6.94993 4.08662 6.95574 4.08081C6.96155 4.075 6.96845 4.07039 6.97604 4.06725C6.98364 4.0641 6.99177 4.06248 6.99999 4.06248C7.00821 4.06248 7.01635 4.0641 7.02394 4.06725C7.03153 4.07039 7.03843 4.075 7.04424 4.08081L7.29424 4.33081C7.30006 4.33662 7.30468 4.34351 7.30783 4.35111C7.31098 4.3587 7.3126 4.36684 7.3126 4.37506C7.3126 4.38328 7.31098 4.39142 7.30783 4.39902C7.30468 4.40661 7.30006 4.41351 7.29424 4.41931ZM7.54424 4.16931C7.53844 4.17513 7.53154 4.17975 7.52395 4.1829C7.51635 4.18605 7.50821 4.18767 7.49999 4.18767C7.49177 4.18767 7.48363 4.18605 7.47604 4.1829C7.46844 4.17975 7.46155 4.17513 7.45574 4.16931L7.20574 3.91931C7.19401 3.90758 7.18741 3.89166 7.18741 3.87506C7.18741 3.85846 7.19401 3.84255 7.20574 3.83081C7.21748 3.81908 7.23339 3.81248 7.24999 3.81248C7.26659 3.81248 7.28251 3.81908 7.29424 3.83081L7.54424 4.08081C7.55006 4.08662 7.55468 4.09351 7.55783 4.10111C7.56098 4.1087 7.5626 4.11684 7.5626 4.12506C7.5626 4.13328 7.56098 4.14142 7.55783 4.14902C7.55468 4.15661 7.55006 4.16351 7.54424 4.16931ZM7.79424 3.91931C7.78844 3.92513 7.78154 3.92975 7.77395 3.9329C7.76635 3.93605 7.75821 3.93767 7.74999 3.93767C7.74177 3.93767 7.73363 3.93605 7.72604 3.9329C7.71844 3.92975 7.71155 3.92513 7.70574 3.91931L7.45574 3.66931C7.44993 3.6635 7.44532 3.6566 7.44218 3.64901C7.43903 3.64142 7.43741 3.63328 7.43741 3.62506C7.43741 3.61684 7.43903 3.60871 7.44218 3.60111C7.44532 3.59352 7.44993 3.58662 7.45574 3.58081C7.46155 3.575 7.46845 3.57039 7.47604 3.56725C7.48364 3.5641 7.49177 3.56248 7.49999 3.56248C7.50821 3.56248 7.51635 3.5641 7.52394 3.56725C7.53153 3.57039 7.53843 3.575 7.54424 3.58081L7.79424 3.83081C7.80006 3.83662 7.80468 3.84351 7.80783 3.85111C7.81098 3.8587 7.8126 3.86684 7.8126 3.87506C7.8126 3.88328 7.81098 3.89142 7.80783 3.89902C7.80468 3.90661 7.80006 3.91351 7.79424 3.91931ZM8.67824 2.69681C8.64183 2.66038 8.59486 2.63635 8.54401 2.62813C8.49317 2.61992 8.44102 2.62794 8.39499 2.65106L7.91824 2.88931C7.96053 2.9169 7.9999 2.94873 8.03574 2.98431L8.39074 3.33931C8.42612 3.375 8.4581 3.41392 8.48624 3.45556L8.72399 2.98006C8.74711 2.93403 8.75513 2.88189 8.74692 2.83104C8.7387 2.78019 8.71467 2.73322 8.67824 2.69681Z" fill="#96A7E1" fill-opacity="0.6"/>
<path d="M6.37504 4.25V3.75L4.87504 5.25H5.37504L6.37504 4.25ZM4.13279 5.99225L3.30179 6.82325C3.28537 6.83966 3.27235 6.85915 3.26346 6.8806C3.25457 6.90205 3.25 6.92503 3.25 6.94825C3.25 6.97147 3.25457 6.99445 3.26346 7.0159C3.27235 7.03735 3.28537 7.05684 3.30179 7.07325C3.3182 7.08967 3.33769 7.10269 3.35914 7.11158C3.38058 7.12046 3.40357 7.12504 3.42679 7.12504C3.45 7.12504 3.47299 7.12046 3.49444 7.11158C3.51589 7.10269 3.53537 7.08967 3.55179 7.07325L4.19879 6.42625C4.15067 6.32242 4.12552 6.20944 4.12504 6.095C4.12551 6.06062 4.12809 6.02631 4.13279 5.99225ZM6.01754 6.8925L7.07329 7.94825C7.12933 8.00429 7.19586 8.04875 7.26908 8.07908C7.3423 8.10941 7.42078 8.12502 7.50004 8.12502C7.57929 8.12502 7.65777 8.10941 7.73099 8.07908C7.80422 8.04875 7.87075 8.00429 7.92679 7.94825L8.10354 7.7715C8.19731 7.67775 8.25001 7.5506 8.25004 7.418V7.2285C8.25003 7.17906 8.23536 7.13074 8.20789 7.08964C8.18042 7.04853 8.14138 7.0165 8.0957 6.99758C8.05003 6.97866 7.99977 6.97371 7.95128 6.98335C7.90279 6.993 7.85825 7.0168 7.82329 7.05175L7.65779 7.21725C7.6425 7.23286 7.62335 7.24415 7.60229 7.24996C7.58123 7.25577 7.559 7.2559 7.53787 7.25034C7.51674 7.24478 7.49746 7.23372 7.48199 7.21829C7.46652 7.20286 7.45541 7.18361 7.44979 7.1625C7.39954 6.97768 7.33269 6.79778 7.25004 6.625C7.16246 6.44261 7.05757 6.26907 6.93679 6.10675C6.64248 6.38251 6.33574 6.6447 6.01754 6.8925Z" fill="#96A7E1" fill-opacity="0.6"/>
<path d="M6.0175 6.89268L7.07325 7.94843C7.12929 8.00448 7.19582 8.04893 7.26905 8.07926C7.34227 8.10959 7.42075 8.12521 7.5 8.12521C7.57926 8.12521 7.65774 8.10959 7.73096 8.07926C7.80418 8.04893 7.87071 8.00448 7.92675 7.94843L8.1035 7.77168C8.19728 7.67794 8.24997 7.55078 8.25 7.41818V7.22868C8.24999 7.17925 8.23532 7.13092 8.20785 7.08982C8.18038 7.04872 8.14134 7.01668 8.09567 6.99776C8.04999 6.97885 7.99973 6.9739 7.95124 6.98354C7.90276 6.99318 7.85821 7.01698 7.82325 7.05193L7.65775 7.21743C7.64246 7.23304 7.62332 7.24433 7.60225 7.25014C7.58119 7.25595 7.55897 7.25608 7.53784 7.25052C7.51671 7.24496 7.49743 7.2339 7.48196 7.21848C7.46648 7.20305 7.45537 7.1838 7.44975 7.16268C7.39951 6.97786 7.33265 6.79796 7.25 6.62518C7.16243 6.4428 7.05753 6.26925 6.93675 6.10693C6.64244 6.38269 6.33571 6.64488 6.0175 6.89268Z" fill="#96A7E1" fill-opacity="0.6"/>
<path d="M7.34228 6.53294L7.39653 6.47869C7.44438 6.43087 7.47746 6.37029 7.49183 6.30418C7.50619 6.23808 7.50123 6.16923 7.47753 6.10587C7.45384 6.04251 7.41241 5.9873 7.3582 5.94684C7.30398 5.90638 7.23927 5.88237 7.17178 5.87769C7.12428 5.92494 7.07428 5.97069 7.02578 6.01719L7.03703 6.03219C7.15336 6.18971 7.25568 6.35729 7.34228 6.53294Z" fill="#96A7E1" fill-opacity="0.6"/>
</g>
<g opacity="0.5" clip-path="url(#clip11_417_352)" filter="url(#filter10_f_417_352)">
<path d="M6.84971 59.4355C6.75811 59.3439 6.60981 59.3439 6.51817 59.4355C6.42671 59.527 6.27809 59.527 6.18663 59.4355C6.09516 59.3441 6.09516 59.1955 6.18663 59.104L4.86044 60.4302C4.9519 60.3387 5.10052 60.3387 5.19198 60.4302C5.28344 60.5216 5.28344 60.6703 5.19198 60.7617C5.10035 60.8534 5.10035 61.0017 5.19198 61.0933L5.52352 61.4248C5.61516 61.5165 5.76346 61.5165 5.8551 61.4248L7.18129 60.0987C7.27289 60.007 7.27289 59.8587 7.18129 59.7671L6.84971 59.4355ZM3.70004 58.9382L4.69466 59.9328L5.85508 58.7724C5.94669 58.6808 5.94669 58.5325 5.85508 58.4409L5.19198 57.7778C4.31376 56.8996 2.90159 56.4212 1.87653 57.4462C1.84372 57.479 1.82137 57.5208 1.81232 57.5662C1.80327 57.6117 1.80793 57.6589 1.8257 57.7017C1.86127 57.7883 1.94658 57.8464 2.04228 57.8464C3.24835 57.8464 3.99497 58.5701 4.00178 58.5768C4.00963 58.5848 4.01404 58.5955 4.01404 58.6066C4.01404 58.6178 4.00963 58.6285 4.00178 58.6364L3.70004 58.9382ZM-0.544338 64.1772C-0.270091 64.4515 0.176062 64.4515 0.450309 64.1772L4.36313 60.2644L3.36848 59.2698L-0.544338 63.1826C-0.818554 63.4568 -0.818554 63.903 -0.544338 64.1772Z" fill="#96A7E1" fill-opacity="0.6"/>
</g>
<g opacity="0.5" clip-path="url(#clip12_417_352)" filter="url(#filter11_f_417_352)">
<path d="M36.7252 4.70922C36.8054 4.62906 36.9352 4.62906 37.0154 4.70922C37.0954 4.78925 37.2254 4.78925 37.3055 4.70922C37.3855 4.62919 37.3855 4.49915 37.3055 4.41912L38.4659 5.57953C38.3858 5.4995 38.2558 5.4995 38.1758 5.57953C38.0957 5.65956 38.0957 5.7896 38.1758 5.86963C38.2559 5.94981 38.2559 6.07958 38.1758 6.15976L37.8857 6.44986C37.8055 6.53004 37.6757 6.53004 37.5955 6.44986L36.4351 5.28945C36.355 5.20927 36.355 5.0795 36.4351 4.99935L36.7252 4.70922ZM39.4812 4.27407L38.6109 5.14436L37.5956 4.129C37.5154 4.04882 37.5154 3.91905 37.5956 3.8389L38.1758 3.25869C38.9442 2.49024 40.1799 2.07166 41.0768 2.96859C41.1055 2.99725 41.1251 3.0338 41.133 3.07359C41.1409 3.11338 41.1368 3.15463 41.1213 3.1921C41.0901 3.26788 41.0155 3.31875 40.9318 3.31875C39.8764 3.31875 39.2232 3.95193 39.2172 3.95787C39.2103 3.9648 39.2065 3.97417 39.2065 3.98393C39.2065 3.99369 39.2103 4.00306 39.2172 4.01L39.4812 4.27407ZM43.195 8.85818C42.9551 9.09815 42.5647 9.09815 42.3247 8.85818L38.901 5.43446L39.7713 4.56417L43.195 7.98789C43.435 8.22783 43.435 8.61824 43.195 8.85818Z" fill="#96A7E1" fill-opacity="0.6"/>
</g>
<g opacity="0.5" clip-path="url(#clip13_417_352)" filter="url(#filter12_f_417_352)">
<path d="M37.1094 54.1679C36.9892 54.1679 36.8739 54.2156 36.789 54.3006C36.704 54.3856 36.6562 54.5008 36.6562 54.621C36.6562 54.8319 36.801 55.0075 36.9961 55.0582V55.7854C36.9287 55.8247 36.8828 55.897 36.8828 55.9805V58.9258C36.8828 59.0093 36.9287 59.0816 36.9961 59.1209V59.9768C36.9287 60.016 36.8828 60.0883 36.8828 60.172C36.8828 60.2321 36.9067 60.2897 36.9492 60.3322C36.9917 60.3747 37.0493 60.3986 37.1094 60.3986C37.1695 60.3986 37.2271 60.3747 37.2696 60.3322C37.3121 60.2897 37.3359 60.2321 37.3359 60.172C37.3359 60.0884 37.2901 60.0161 37.2227 59.9768V59.1209C37.2901 59.0816 37.3359 59.0093 37.3359 58.9258V55.9804C37.3359 55.8969 37.2901 55.8246 37.2227 55.7853V55.058C37.3197 55.0332 37.4058 54.9767 37.4673 54.8976C37.5288 54.8184 37.5623 54.7211 37.5625 54.6209C37.5625 54.5007 37.5147 54.3855 37.4297 54.3006C37.3448 54.2156 37.2295 54.1679 37.1094 54.1679ZM41.6406 59.8319H41.8672V60.3983H41.6406V59.8319ZM39.0414 54.0374L38.7153 53.7656C38.6832 53.7389 38.6443 53.7218 38.6029 53.7164C38.5615 53.7111 38.5195 53.7176 38.4817 53.7353C38.4439 53.753 38.4119 53.7811 38.3896 53.8164C38.3672 53.8516 38.3554 53.8925 38.3555 53.9342C38.3555 54.0125 38.3576 54.0907 38.3618 54.1689L38.6801 60.1116C38.6826 60.1585 38.703 60.2026 38.737 60.2348C38.7711 60.2671 38.8162 60.2851 38.8631 60.2851C38.962 60.2851 39.0424 60.2077 39.0461 60.1089L39.2618 54.5034C39.2614 54.4143 39.2415 54.3264 39.2034 54.2459C39.1653 54.1654 39.11 54.0942 39.0414 54.0374ZM41.8756 54.7343H41.6322L41.5364 55.9804H41.9714L41.8756 54.7343ZM41.8671 53.828L41.6406 53.998V54.5077H41.8672L41.8671 53.828ZM41.6233 59.6054H41.8845L41.9601 59.1523H41.5477L41.6233 59.6054ZM41.5273 56.2069H41.9805V58.9257H41.5273V56.2069ZM40.2754 60.1691C40.2771 60.2341 40.3294 60.2851 40.3945 60.2851C40.4597 60.2851 40.5119 60.2341 40.5136 60.1691L40.6181 56.0937H40.1709L40.2754 60.1691ZM40.168 54.422V54.5077H40.6211V54.422C40.6218 54.1856 40.5418 53.9561 40.3945 53.7713C40.2472 53.9561 40.1673 54.1856 40.168 54.422ZM40.168 54.7343H40.6211V55.8671H40.168V54.7343Z" fill="#96A7E1" fill-opacity="0.6"/>
</g>
<g opacity="0.5" clip-path="url(#clip14_417_352)" filter="url(#filter13_f_417_352)">
<path d="M25.5423 8.07861L25.8662 8.42091L27.0782 7.30382L26.7554 6.96362L25.5423 8.07861Z" fill="#96A7E1" fill-opacity="0.6"/>
<path d="M27.2051 6.06995C27.1615 6.02396 27.1016 5.99696 27.0383 5.99477C26.975 5.99259 26.9134 6.0154 26.8668 6.05829L23.127 9.50579L23.8801 11.05L25.4071 9.64252L28.0009 7.25237C28.0234 7.23164 28.0417 7.20662 28.0544 7.17877C28.0672 7.15093 28.0743 7.12081 28.0753 7.09018C28.0763 7.05956 28.0712 7.02904 28.0603 7.00042C28.0493 6.97179 28.0328 6.94564 28.0116 6.92349L27.2051 6.06995ZM27.2367 7.47497L26.0026 8.61259C26.0072 8.63168 26.0094 8.65128 26.009 8.67092C26.008 8.70191 26.0007 8.73238 25.9877 8.76055C25.9748 8.78871 25.9563 8.81401 25.9334 8.83495L25.4155 9.31329C25.3714 9.35317 25.314 9.37531 25.2545 9.37547C25.2313 9.37497 25.2083 9.37104 25.1863 9.3638L24.8154 9.70564C24.7697 9.74733 24.7094 9.76946 24.6475 9.76728C24.5857 9.7651 24.5271 9.73878 24.4844 9.69397L24.1614 9.35272C24.1403 9.33027 24.1239 9.30387 24.113 9.27504C24.1022 9.24621 24.0972 9.21552 24.0983 9.18474C24.0993 9.15396 24.1065 9.1237 24.1193 9.0957C24.1322 9.06771 24.1504 9.04253 24.173 9.02162L24.5424 8.68119C24.5378 8.66209 24.5356 8.6425 24.5358 8.62285C24.5365 8.59197 24.5434 8.56156 24.5561 8.5334C24.5688 8.50525 24.5871 8.47993 24.6097 8.45894L25.1297 7.9806C25.16 7.95266 25.197 7.93318 25.2372 7.92413C25.2774 7.91508 25.3192 7.91677 25.3585 7.92904L26.5935 6.79084C26.6393 6.74911 26.6996 6.72696 26.7615 6.72914C26.8234 6.73132 26.8819 6.75766 26.9246 6.8025L27.2476 7.14375C27.2687 7.16614 27.2852 7.19251 27.2961 7.22133C27.307 7.25015 27.312 7.28084 27.3109 7.31163C27.3098 7.34241 27.3026 7.37267 27.2898 7.40065C27.2769 7.42863 27.2586 7.45378 27.2359 7.47462L27.2367 7.47497Z" fill="#96A7E1" fill-opacity="0.6"/>
<path d="M24.7687 8.63113L25.2536 9.14213L25.7755 8.6638L25.7756 8.66368L25.291 8.15257L24.7687 8.63113ZM24.23 11.8034C24.4414 11.7213 24.6232 11.5773 24.7513 11.3902C24.8795 11.2031 24.9482 10.9816 24.9484 10.7548V10.7291C24.9464 10.5983 24.9617 10.4678 24.9938 10.341L23.3946 11.8144C23.6638 11.9199 23.9636 11.9159 24.23 11.8034ZM23.0138 11.5625C23.0638 11.6125 23.1185 11.6576 23.1771 11.6974L23.7007 11.2149L22.9524 9.68008C22.7334 9.93095 22.6125 10.2525 22.6119 10.5855C22.6113 10.9185 22.7311 11.2405 22.9491 11.4921C22.97 11.5175 22.9915 11.5404 23.0138 11.5625ZM29.1417 5.72158L28.1493 5.3584L27.4556 5.99575L28.1022 6.67965L29.1417 5.72158ZM24.3314 9.1944L24.6542 9.5346L25.0026 9.2161L24.6792 8.87368L24.3314 9.1944Z" fill="#96A7E1" fill-opacity="0.6"/>
</g>
<g opacity="0.5" clip-path="url(#clip15_417_352)" filter="url(#filter14_f_417_352)">
<path d="M40.4173 41.2036L40.7412 41.5459L41.9532 40.4288L41.6304 40.0886L40.4173 41.2036Z" fill="#96A7E1" fill-opacity="0.6"/>
<path d="M42.0801 39.195C42.0365 39.149 41.9766 39.122 41.9133 39.1198C41.85 39.1176 41.7884 39.1404 41.7418 39.1833L38.002 42.6308L38.7551 44.175L40.2821 42.7675L42.8759 40.3774C42.8984 40.3566 42.9167 40.3316 42.9294 40.3038C42.9422 40.2759 42.9493 40.2458 42.9503 40.2152C42.9513 40.1846 42.9462 40.154 42.9353 40.1254C42.9243 40.0968 42.9078 40.0706 42.8866 40.0485L42.0801 39.195ZM42.1117 40.6L40.8776 41.7376C40.8822 41.7567 40.8844 41.7763 40.884 41.7959C40.883 41.8269 40.8757 41.8574 40.8627 41.8855C40.8498 41.9137 40.8313 41.939 40.8084 41.96L40.2905 42.4383C40.2464 42.4782 40.189 42.5003 40.1295 42.5005C40.1063 42.5 40.0833 42.496 40.0613 42.4888L39.6904 42.8306C39.6447 42.8723 39.5844 42.8945 39.5225 42.8923C39.4607 42.8901 39.4021 42.8638 39.3594 42.819L39.0364 42.4777C39.0153 42.4553 38.9989 42.4289 38.988 42.4C38.9772 42.3712 38.9722 42.3405 38.9732 42.3097C38.9743 42.279 38.9815 42.2487 38.9943 42.2207C39.0072 42.1927 39.0254 42.1675 39.048 42.1466L39.4174 41.8062C39.4128 41.7871 39.4106 41.7675 39.4108 41.7479C39.4115 41.717 39.4184 41.6866 39.4311 41.6584C39.4438 41.6302 39.4621 41.6049 39.4847 41.5839L40.0047 41.1056C40.035 41.0777 40.072 41.0582 40.1122 41.0491C40.1523 41.0401 40.1942 41.0418 40.2335 41.054L41.4685 39.9158C41.5143 39.8741 41.5746 39.852 41.6365 39.8541C41.6983 39.8563 41.7569 39.8827 41.7996 39.9275L42.1226 40.2688C42.1437 40.2911 42.1602 40.3175 42.1711 40.3463C42.182 40.3752 42.187 40.4058 42.1859 40.4366C42.1848 40.4674 42.1776 40.4977 42.1648 40.5257C42.1519 40.5536 42.1336 40.5788 42.1109 40.5996L42.1117 40.6Z" fill="#96A7E1" fill-opacity="0.6"/>
<path d="M39.6437 41.7561L40.1286 42.2671L40.6505 41.7888L40.6506 41.7887L40.166 41.2776L39.6437 41.7561ZM39.105 44.9284C39.3164 44.8463 39.4982 44.7023 39.6263 44.5152C39.7545 44.3281 39.8232 44.1066 39.8234 43.8798V43.8541C39.8214 43.7233 39.8367 43.5928 39.8688 43.466L38.2696 44.9394C38.5388 45.0449 38.8386 45.0409 39.105 44.9284ZM37.8888 44.6875C37.9388 44.7375 37.9935 44.7826 38.0521 44.8224L38.5757 44.3399L37.8274 42.8051C37.6084 43.0559 37.4875 43.3775 37.4869 43.7105C37.4863 44.0435 37.606 44.3655 37.8241 44.6171C37.845 44.6425 37.8665 44.6654 37.8888 44.6875ZM44.0167 38.8466L43.0243 38.4834L42.3306 39.1207L42.9772 39.8046L44.0167 38.8466ZM39.2064 42.3194L39.5292 42.6596L39.8776 42.3411L39.5542 41.9987L39.2064 42.3194Z" fill="#96A7E1" fill-opacity="0.6"/>
</g>
<g opacity="0.5" clip-path="url(#clip16_417_352)" filter="url(#filter15_f_417_352)">
<path d="M3.66413 27.2679L3.61265 26.7425L2.38676 26.8627L2.43824 27.3881C2.47141 27.7266 2.77272 27.9741 3.11124 27.941C3.44976 27.9078 3.6973 27.6065 3.66413 27.2679ZM5.85092 24.2919L6.26269 22.9995L5.70899 23.0537L5.29723 24.3462L5.85092 24.2919ZM4.91637 24.3835L5.32814 23.0911L4.21149 23.2005L4.333 24.4407L4.91637 24.3835ZM3.9395 24.0298L-0.184145 24.4338L-0.218428 24.0839L3.90522 23.6799L3.84945 23.1107L-0.52059 23.5389C-0.931558 23.5792 -1.23207 23.945 -1.1918 24.3559C-1.15153 24.7669 -0.785729 25.0674 -0.374769 25.0271L3.99527 24.599L3.9395 24.0298ZM2.24314 22.9149L2.98726 22.842L2.8387 21.3258L2.30867 19.75L2.09458 21.3987L2.24314 22.9149ZM3.51701 25.7664L3.27612 25.79L3.20165 25.03L2.45753 25.1029L2.532 25.863L2.29112 25.8866L2.35249 26.5128L3.57836 26.3927L3.51701 25.7664Z" fill="#96A7E1" fill-opacity="0.6"/>
</g>
<g opacity="0.5" clip-path="url(#clip17_417_352)" filter="url(#filter16_f_417_352)">
<path d="M37.5408 29.0139C37.4825 29.0837 37.4872 29.1864 37.5515 29.2507L39.9995 31.6985C40.0637 31.7628 40.1665 31.7675 40.2363 31.7092C40.2782 31.6743 41.1429 30.9447 41.4959 29.9775L39.2726 27.7542C38.3054 28.1072 37.5757 28.9719 37.5408 29.0139ZM43.2714 25.9786C43.1186 25.8253 42.9068 25.7423 42.6902 25.7506C42.4732 25.7589 42.268 25.858 42.1276 26.0223L41.1325 27.1828C41.066 27.2614 40.9494 27.258 40.885 27.1927C40.6731 26.9792 40.325 26.9802 40.1144 27.1923L39.6609 27.6454L41.6046 29.589L42.0577 29.1356C42.2698 28.925 42.2708 28.5769 42.0573 28.365C41.992 28.3006 41.9886 28.184 42.0672 28.1175L43.2277 27.1224C43.392 26.982 43.4911 26.7768 43.4994 26.5598C43.5077 26.3432 43.4247 26.1314 43.2714 25.9786Z" fill="#96A7E1" fill-opacity="0.6"/>
</g>
<g opacity="0.5" clip-path="url(#clip18_417_352)" filter="url(#filter17_f_417_352)">
<path d="M58.7299 55.6594C58.8036 55.3251 58.7495 54.9832 58.5775 54.6968C58.4044 54.4087 58.1329 54.2111 57.8131 54.1406L57.5959 54.1108L56.9451 57.0912L58.2084 57.955L58.7299 55.6594ZM56.228 60.3753C55.8052 60.5108 55.4632 60.8609 55.3609 61.3249C55.2868 61.6609 55.3481 62.0057 55.5333 62.2957C55.7186 62.5857 56.0057 62.7862 56.3417 62.8603C56.5919 62.9158 56.8529 62.8949 57.0911 62.8005C57.4761 62.6481 57.7815 62.3135 57.8772 61.8795C57.9513 61.5435 57.89 61.1987 57.7048 60.9087C57.6665 60.8489 57.6234 60.7923 57.5759 60.7396L57.6563 60.3856L56.4097 59.5434L56.228 60.3753ZM57.4243 61.7797C57.3264 62.2238 56.8855 62.5053 56.4415 62.4075C56.2264 62.3601 56.0426 62.2317 55.9241 62.0461C55.8055 61.8605 55.7663 61.6398 55.8137 61.4247C55.875 61.1469 56.0704 60.9327 56.3169 60.8352C56.4694 60.7747 56.6364 60.7614 56.7966 60.7969C57.0117 60.8443 57.1954 60.9726 57.314 61.1583C57.4326 61.3439 57.4717 61.5646 57.4243 61.7797Z" fill="#96A7E1" fill-opacity="0.6"/>
<path d="M60.3604 59.3468C60.1859 59.2271 59.9845 59.1525 59.7741 59.1297C59.5809 59.1088 59.3855 59.1316 59.2023 59.1964L53.9588 55.6109L53.9697 55.595L53.9241 55.5636L53.7911 55.7274L53.7862 55.7339C53.6012 56.0042 53.5383 56.334 53.6093 56.6626C53.6717 56.9519 53.8316 57.2095 54.0641 57.3993L58.3493 60.2942C58.3388 60.412 58.3445 60.5307 58.3663 60.647C58.3841 60.7415 58.4123 60.8338 58.4504 60.9221C58.5457 61.1432 58.7013 61.3336 58.9048 61.4729C59.2715 61.7239 59.7232 61.7591 60.1082 61.6067C60.3466 61.5126 60.5512 61.3492 60.6957 61.1376C60.8901 60.8537 60.9623 60.511 60.8989 60.1728C60.8356 59.8345 60.6443 59.5412 60.3604 59.3468ZM57.0993 58.8524C57.0481 58.738 57.1169 58.5961 57.2296 58.5515C57.3505 58.5037 57.4791 58.5671 57.5305 58.6818C57.5818 58.7962 57.513 58.9381 57.4002 58.9827C57.2794 59.0305 57.1508 58.9671 57.0993 58.8524ZM60.4432 60.2581C60.4837 60.4746 60.4375 60.694 60.3131 60.8757C60.2206 61.0112 60.0896 61.1158 59.9371 61.176C59.6906 61.2735 59.4015 61.251 59.1668 61.0903C59.0972 61.0428 59.0353 60.9848 58.9833 60.9186C58.9151 60.8318 58.8651 60.7317 58.8362 60.6232C58.8309 60.6029 58.826 60.5825 58.8221 60.5617C58.7815 60.3452 58.8277 60.1258 58.9522 59.9441C59.0446 59.8086 59.1756 59.704 59.3282 59.6438C59.5746 59.5463 59.8638 59.5688 60.0984 59.7294C60.2802 59.8539 60.4026 60.0416 60.4432 60.2581Z" fill="#96A7E1" fill-opacity="0.6"/>
</g>
<g opacity="0.5" clip-path="url(#clip19_417_352)" filter="url(#filter18_f_417_352)">
<path d="M28.1517 22.3934C28.2015 22.1676 28.1649 21.9368 28.0488 21.7435C27.9319 21.549 27.7487 21.4156 27.5327 21.368L27.3861 21.3478L26.9468 23.3599L27.7996 23.9431L28.1517 22.3934ZM26.4626 25.5771C26.1772 25.6686 25.9463 25.9049 25.8773 26.2181C25.8273 26.445 25.8686 26.6778 25.9937 26.8736C26.1187 27.0694 26.3125 27.2047 26.5394 27.2547C26.7083 27.2922 26.8845 27.2781 27.0453 27.2143C27.3053 27.1115 27.5114 26.8855 27.576 26.5926C27.626 26.3657 27.5847 26.133 27.4596 25.9372C27.4338 25.8968 27.4047 25.8586 27.3726 25.823L27.4269 25.584L26.5853 25.0155L26.4626 25.5771ZM27.2703 26.5252C27.2042 26.825 26.9065 27.0151 26.6068 26.949C26.4616 26.917 26.3375 26.8304 26.2575 26.705C26.1774 26.5797 26.151 26.4307 26.183 26.2855C26.2243 26.098 26.3563 25.9534 26.5227 25.8875C26.6256 25.8467 26.7384 25.8377 26.8465 25.8617C26.9917 25.8937 27.1158 25.9803 27.1958 26.1057C27.2758 26.231 27.3023 26.38 27.2703 26.5252Z" fill="#96A7E1" fill-opacity="0.6"/>
<path d="M29.2524 24.8827C29.1347 24.8019 28.9987 24.7516 28.8567 24.7362C28.7262 24.7221 28.5943 24.7374 28.4706 24.7812L24.9307 22.3606L24.938 22.3499L24.9072 22.3287L24.8175 22.4392L24.8142 22.4437C24.6893 22.6261 24.6468 22.8488 24.6947 23.0706C24.7369 23.2659 24.8448 23.4398 25.0018 23.568L27.8947 25.5223C27.8877 25.6019 27.8915 25.682 27.9062 25.7605C27.9182 25.8243 27.9373 25.8866 27.963 25.9462C28.0274 26.0955 28.1324 26.224 28.2698 26.3181C28.5173 26.4876 28.8222 26.5113 29.0822 26.4084C29.2431 26.3449 29.3813 26.2346 29.4788 26.0917C29.61 25.9 29.6588 25.6687 29.616 25.4403C29.5733 25.212 29.4441 25.014 29.2524 24.8827ZM27.0509 24.549C27.0163 24.4718 27.0627 24.376 27.1389 24.3458C27.2204 24.3135 27.3072 24.3563 27.342 24.4338C27.3766 24.511 27.3302 24.6068 27.254 24.6369C27.1724 24.6692 27.0856 24.6264 27.0509 24.549ZM29.3083 25.498C29.3357 25.6441 29.3045 25.7922 29.2205 25.9149C29.1581 26.0064 29.0696 26.077 28.9667 26.1176C28.8003 26.1834 28.6051 26.1683 28.4466 26.0598C28.3997 26.0277 28.3579 25.9886 28.3227 25.9438C28.2767 25.8852 28.243 25.8177 28.2235 25.7444C28.2198 25.7307 28.2165 25.7169 28.2139 25.7029C28.1866 25.5567 28.2177 25.4087 28.3017 25.286C28.3642 25.1945 28.4526 25.1239 28.5556 25.0832C28.722 25.0174 28.9172 25.0326 29.0756 25.1411C29.1983 25.225 29.281 25.3518 29.3083 25.498Z" fill="#96A7E1" fill-opacity="0.6"/>
</g>
<rect width="64" height="64" fill="white" fill-opacity="0.15"/>
<path fill-rule="evenodd" clip-rule="evenodd" d="M52 14.625H34.25V18.5H48.1779V23.25H34.25V26.625V27.125V37.75H21.375V41.5H38.125V38.75V37.75V27.125H52V24.2807V23.25V18.5V14.6708V14.625ZM22 14.75H26.5H28H30.5V30V33.875V34H15.875V45.375H41.875V31.25H45.125H45.875H52V35.125H45.875V45.375V49.25V49.375H12V46.5V45.375V30H15.375H15.875H26.5V26.1976H18.125V26.125V22.3226V14.75H18.25H22ZM22 18.5V22.3226H26.5V18.5H22ZM52 42.1935V38.3467H48.1532V42.1935H52ZM15.8468 22.2944H12V18.4476H15.8468V22.2944ZM52 49.2459V45.3992H48.1532V49.2459H52Z" fill="white"/>
</g>
<defs>
<filter id="filter0_f_417_352" x="52.945" y="1.94507" width="8.98485" height="8.98486" filterUnits="userSpaceOnUse" color-interpolation-filters="sRGB">
<feFlood flood-opacity="0" result="BackgroundImageFix"/>
<feBlend mode="normal" in="SourceGraphic" in2="BackgroundImageFix" result="shape"/>
<feGaussianBlur stdDeviation="0.125" result="effect1_foregroundBlur_417_352"/>
</filter>
<filter id="filter1_f_417_352" x="-1.75" y="39.375" width="8.78865" height="8.78882" filterUnits="userSpaceOnUse" color-interpolation-filters="sRGB">
<feFlood flood-opacity="0" result="BackgroundImageFix"/>
<feBlend mode="normal" in="SourceGraphic" in2="BackgroundImageFix" result="shape"/>
<feGaussianBlur stdDeviation="0.125" result="effect1_foregroundBlur_417_352"/>
</filter>
<filter id="filter2_f_417_352" x="16.125" y="36" width="9.84842" height="9.84839" filterUnits="userSpaceOnUse" color-interpolation-filters="sRGB">
<feFlood flood-opacity="0" result="BackgroundImageFix"/>
<feBlend mode="normal" in="SourceGraphic" in2="BackgroundImageFix" result="shape"/>
<feGaussianBlur stdDeviation="0.125" result="effect1_foregroundBlur_417_352"/>
</filter>
<filter id="filter3_f_417_352" x="55" y="31.75" width="9.73767" height="9.73779" filterUnits="userSpaceOnUse" color-interpolation-filters="sRGB">
<feFlood flood-opacity="0" result="BackgroundImageFix"/>
<feBlend mode="normal" in="SourceGraphic" in2="BackgroundImageFix" result="shape"/>
<feGaussianBlur stdDeviation="0.125" result="effect1_foregroundBlur_417_352"/>
</filter>
<filter id="filter4_f_417_352" x="51.75" y="21.875" width="7.75" height="7.75" filterUnits="userSpaceOnUse" color-interpolation-filters="sRGB">
<feFlood flood-opacity="0" result="BackgroundImageFix"/>
<feBlend mode="normal" in="SourceGraphic" in2="BackgroundImageFix" result="shape"/>
<feGaussianBlur stdDeviation="0.125" result="effect1_foregroundBlur_417_352"/>
</filter>
<filter id="filter5_f_417_352" x="43.875" y="9.00024" width="7.63893" height="7.63892" filterUnits="userSpaceOnUse" color-interpolation-filters="sRGB">
<feFlood flood-opacity="0" result="BackgroundImageFix"/>
<feBlend mode="normal" in="SourceGraphic" in2="BackgroundImageFix" result="shape"/>
<feGaussianBlur stdDeviation="0.125" result="effect1_foregroundBlur_417_352"/>
</filter>
<filter id="filter6_f_417_352" x="16" y="53" width="9.88559" height="9.8855" filterUnits="userSpaceOnUse" color-interpolation-filters="sRGB">
<feFlood flood-opacity="0" result="BackgroundImageFix"/>
<feBlend mode="normal" in="SourceGraphic" in2="BackgroundImageFix" result="shape"/>
<feGaussianBlur stdDeviation="0.125" result="effect1_foregroundBlur_417_352"/>
</filter>
<filter id="filter7_f_417_352" x="14.25" y="14.625" width="6.5" height="6.5" filterUnits="userSpaceOnUse" color-interpolation-filters="sRGB">
<feFlood flood-opacity="0" result="BackgroundImageFix"/>
<feBlend mode="normal" in="SourceGraphic" in2="BackgroundImageFix" result="shape"/>
<feGaussianBlur stdDeviation="0.125" result="effect1_foregroundBlur_417_352"/>
</filter>
<filter id="filter8_f_417_352" x="45.125" y="42.75" width="10.9312" height="10.9312" filterUnits="userSpaceOnUse" color-interpolation-filters="sRGB">
<feFlood flood-opacity="0" result="BackgroundImageFix"/>
<feBlend mode="normal" in="SourceGraphic" in2="BackgroundImageFix" result="shape"/>
<feGaussianBlur stdDeviation="0.125" result="effect1_foregroundBlur_417_352"/>
</filter>
<filter id="filter9_f_417_352" x="2.75" y="2.125" width="6.5" height="6.5" filterUnits="userSpaceOnUse" color-interpolation-filters="sRGB">
<feFlood flood-opacity="0" result="BackgroundImageFix"/>
<feBlend mode="normal" in="SourceGraphic" in2="BackgroundImageFix" result="shape"/>
<feGaussianBlur stdDeviation="0.125" result="effect1_foregroundBlur_417_352"/>
</filter>
<filter id="filter10_f_417_352" x="-1" y="56.375" width="8.5" height="8.5" filterUnits="userSpaceOnUse" color-interpolation-filters="sRGB">
<feFlood flood-opacity="0" result="BackgroundImageFix"/>
<feBlend mode="normal" in="SourceGraphic" in2="BackgroundImageFix" result="shape"/>
<feGaussianBlur stdDeviation="0.125" result="effect1_foregroundBlur_417_352"/>
</filter>
<filter id="filter11_f_417_352" x="36.125" y="2" width="7.5" height="7.5" filterUnits="userSpaceOnUse" color-interpolation-filters="sRGB">
<feFlood flood-opacity="0" result="BackgroundImageFix"/>
<feBlend mode="normal" in="SourceGraphic" in2="BackgroundImageFix" result="shape"/>
<feGaussianBlur stdDeviation="0.125" result="effect1_foregroundBlur_417_352"/>
</filter>
<filter id="filter12_f_417_352" x="35.5" y="53.125" width="7.75" height="7.75" filterUnits="userSpaceOnUse" color-interpolation-filters="sRGB">
<feFlood flood-opacity="0" result="BackgroundImageFix"/>
<feBlend mode="normal" in="SourceGraphic" in2="BackgroundImageFix" result="shape"/>
<feGaussianBlur stdDeviation="0.125" result="effect1_foregroundBlur_417_352"/>
</filter>
<filter id="filter13_f_417_352" x="22.125" y="4.875" width="7.5" height="7.5" filterUnits="userSpaceOnUse" color-interpolation-filters="sRGB">
<feFlood flood-opacity="0" result="BackgroundImageFix"/>
<feBlend mode="normal" in="SourceGraphic" in2="BackgroundImageFix" result="shape"/>
<feGaussianBlur stdDeviation="0.125" result="effect1_foregroundBlur_417_352"/>
</filter>
<filter id="filter14_f_417_352" x="37" y="38" width="7.5" height="7.5" filterUnits="userSpaceOnUse" color-interpolation-filters="sRGB">
<feFlood flood-opacity="0" result="BackgroundImageFix"/>
<feBlend mode="normal" in="SourceGraphic" in2="BackgroundImageFix" result="shape"/>
<feGaussianBlur stdDeviation="0.125" result="effect1_foregroundBlur_417_352"/>
</filter>
<filter id="filter15_f_417_352" x="-1.75002" y="19.5" width="8.94484" height="8.94482" filterUnits="userSpaceOnUse" color-interpolation-filters="sRGB">
<feFlood flood-opacity="0" result="BackgroundImageFix"/>
<feBlend mode="normal" in="SourceGraphic" in2="BackgroundImageFix" result="shape"/>
<feGaussianBlur stdDeviation="0.125" result="effect1_foregroundBlur_417_352"/>
</filter>
<filter id="filter16_f_417_352" x="37.25" y="25.5" width="6.5" height="6.5" filterUnits="userSpaceOnUse" color-interpolation-filters="sRGB">
<feFlood flood-opacity="0" result="BackgroundImageFix"/>
<feBlend mode="normal" in="SourceGraphic" in2="BackgroundImageFix" result="shape"/>
<feGaussianBlur stdDeviation="0.125" result="effect1_foregroundBlur_417_352"/>
</filter>
<filter id="filter17_f_417_352" x="51.7748" y="53.1604" width="10.7453" height="10.7454" filterUnits="userSpaceOnUse" color-interpolation-filters="sRGB">
<feFlood flood-opacity="0" result="BackgroundImageFix"/>
<feBlend mode="normal" in="SourceGraphic" in2="BackgroundImageFix" result="shape"/>
<feGaussianBlur stdDeviation="0.125" result="effect1_foregroundBlur_417_352"/>
</filter>
<filter id="filter18_f_417_352" x="23.375" y="20.625" width="7.41664" height="7.41675" filterUnits="userSpaceOnUse" color-interpolation-filters="sRGB">
<feFlood flood-opacity="0" result="BackgroundImageFix"/>
<feBlend mode="normal" in="SourceGraphic" in2="BackgroundImageFix" result="shape"/>
<feGaussianBlur stdDeviation="0.125" result="effect1_foregroundBlur_417_352"/>
</filter>
<clipPath id="clip0_417_352">
<rect width="64" height="64" rx="4" fill="white"/>
</clipPath>
<clipPath id="clip1_417_352">
<rect width="7.625" height="7.625" fill="white" transform="translate(53.195 3.11011) rotate(-6.89166)"/>
</clipPath>
<clipPath id="clip2_417_352">
<rect width="6" height="6" fill="white" transform="translate(-1.5 42.8613) rotate(-32.6412)"/>
</clipPath>
<clipPath id="clip3_417_352">
<rect width="7.01216" height="7.01216" fill="white" transform="translate(19.3948 36.25) rotate(25.5094)"/>
</clipPath>
<clipPath id="clip4_417_352">
<rect width="6.67407" height="6.67407" fill="white" transform="translate(55.25 35.6504) rotate(-33.1574)"/>
</clipPath>
<clipPath id="clip5_417_352">
<rect width="7.25" height="7.25" fill="white" transform="translate(52 22.125)"/>
</clipPath>
<clipPath id="clip6_417_352">
<rect width="6" height="6" fill="white" transform="translate(44.125 10.5264) rotate(-12.281)"/>
</clipPath>
<clipPath id="clip7_417_352">
<rect width="7.35224" height="7.35224" fill="white" transform="translate(18.7055 53.25) rotate(19.5106)"/>
</clipPath>
<clipPath id="clip8_417_352">
<rect width="6" height="6" fill="white" transform="translate(14.5 14.875)"/>
</clipPath>
<clipPath id="clip9_417_352">
<rect width="7.64738" height="7.64738" fill="white" transform="translate(45.375 46.7878) rotate(-29.6903)"/>
</clipPath>
<clipPath id="clip10_417_352">
<rect width="6" height="6" fill="white" transform="translate(3 2.375)"/>
</clipPath>
<clipPath id="clip11_417_352">
<rect width="8" height="8" fill="white" transform="translate(-0.75 56.625)"/>
</clipPath>
<clipPath id="clip12_417_352">
<rect width="7" height="7" fill="white" transform="matrix(-1 0 0 1 43.375 2.25)"/>
</clipPath>
<clipPath id="clip13_417_352">
<rect width="7.25" height="7.25" fill="white" transform="translate(35.75 53.375)"/>
</clipPath>
<clipPath id="clip14_417_352">
<rect width="7" height="7" fill="white" transform="translate(22.375 5.125)"/>
</clipPath>
<clipPath id="clip15_417_352">
<rect width="7" height="7" fill="white" transform="translate(37.25 38.25)"/>
</clipPath>
<clipPath id="clip16_417_352">
<rect width="6" height="6" fill="white" transform="translate(2.30867 19.75) rotate(39.4039)"/>
</clipPath>
<clipPath id="clip17_417_352">
<rect width="6" height="6" fill="white" transform="translate(37.5 25.75)"/>
</clipPath>
<clipPath id="clip18_417_352">
<rect width="7.89452" height="7.89452" fill="white" transform="translate(52.0248 56.3149) rotate(-21.5868)"/>
</clipPath>
<clipPath id="clip19_417_352">
<rect width="5.32963" height="5.32963" fill="white" transform="translate(23.625 22.8359) rotate(-21.5868)"/>
</clipPath>
</defs>
</svg>
